<svg width="60" height="60" viewBox="0 0 60 60" fill="none" xmlns="http://www.w3.org/2000/svg">
<path d="M1.36426 21.3412C1.82237 20.425 2.57603 20.0555 3.56614 20.1738C4.09813 20.2329 4.20158 20.026 4.1868 19.5383C4.15725 18.0458 4.1868 16.5532 4.17202 15.0607C4.15725 14.1149 4.48236 13.3612 5.26557 12.7849C5.88624 12.3268 9.61022 9.35649 10.2161 8.86882C10.7186 8.46982 11.221 8.46982 11.5313 8.85404C11.8564 9.25304 11.753 9.75548 11.2358 10.184C10.6151 10.6865 6.87634 13.6568 6.25568 14.1445C5.98968 14.3514 5.8419 14.5878 5.8419 14.9277C5.8419 16.5532 5.8419 18.164 5.8419 19.7896C5.8419 20.0555 5.88624 20.1885 6.19657 20.1885C6.92068 20.1738 7.63001 20.1738 8.35412 20.1885C8.64967 20.1885 8.73834 20.0851 8.72356 19.8043C8.70878 18.9029 8.72356 18.0014 8.70878 17.1C8.694 16.2429 9.03389 15.5779 9.69889 15.0459C11.0141 14.0115 12.3293 12.977 13.615 11.8835C14.3243 11.2776 15.0928 10.9673 16.0385 11.0411C16.541 11.0855 17.2355 11.2185 17.5311 10.9673C17.8857 10.6717 17.6345 9.96237 17.6493 9.44515C17.6641 8.18905 17.6493 8.29249 16.3636 8.15949C14.4425 7.9526 12.8613 8.44027 11.5757 9.87371C11.4722 9.97715 11.354 10.0658 11.221 10.1397C10.8072 10.3466 10.423 10.2875 10.1422 9.91804C9.87622 9.56337 9.891 9.1496 10.2161 8.86882C11.0437 8.17427 11.9008 7.4945 12.7579 6.84428C13.1273 6.5635 13.615 6.53394 14.0879 6.53394C15.1519 6.53394 16.2306 6.51917 17.2946 6.54872C17.5902 6.54872 17.6936 6.46006 17.7971 6.19406C18.1961 5.05617 19.0532 4.47984 20.2797 4.46506C20.7231 4.46506 21.1664 4.45029 21.6097 4.46506C21.9053 4.47984 21.9939 4.3764 21.9792 4.09562C21.9644 3.65229 21.9644 3.20896 21.9792 2.76563C22.0087 1.80508 22.5555 1.2583 23.5013 1.2583C27.6095 1.2583 31.7177 1.2583 35.8259 1.2583C36.7864 1.2583 37.3332 1.7903 37.3775 2.75085C37.3923 3.20896 37.3923 3.66707 37.3775 4.13995C37.3628 4.40595 37.4662 4.49462 37.7174 4.47984C38.1755 4.46506 38.6336 4.46506 39.1065 4.47984C40.2888 4.49462 41.1459 5.07095 41.5449 6.19406C41.6483 6.48961 41.7961 6.57828 42.0916 6.5635C43.1409 6.54872 44.1901 6.5635 45.2393 6.54872C45.9338 6.53394 46.5249 6.75561 47.0717 7.19894C49.4362 9.12004 51.8006 11.0116 54.1798 12.9179C54.8596 13.4647 55.1847 14.1592 55.1847 15.0163C55.1699 16.5828 55.1995 18.1492 55.1699 19.7157C55.1699 20.1294 55.2586 20.2772 55.6871 20.2329C55.9975 20.2033 56.3226 20.2181 56.6181 20.2624C57.3866 20.3807 57.9629 20.9865 57.9777 21.7698C58.0072 22.8042 58.0072 23.8386 57.9777 24.8583C57.9629 25.6415 57.4161 26.2474 56.6477 26.3952C56.4999 26.4247 56.3521 26.4395 56.2043 26.4395C55.8201 26.4543 55.3029 26.3065 55.0812 26.4986C54.8152 26.7351 54.9926 27.2523 54.9926 27.6513C54.9778 28.4493 54.9926 29.2325 54.9778 30.0305C54.9778 30.2817 55.0517 30.4147 55.2586 30.5773C57.7708 32.4984 57.4161 36.1337 54.564 37.5228C54.3424 37.6262 50.0568 39.6302 49.8352 39.7041C49.377 39.8667 48.9337 39.7041 48.7416 39.3199C48.5495 38.9061 48.712 38.4332 49.1406 38.1968C49.377 38.0638 53.7217 36.0894 53.9581 35.9564C55.1108 35.3505 55.5837 33.9909 55.0517 32.8383C54.5049 31.6561 53.1454 31.1241 51.9336 31.6708C50.0716 32.4984 48.2392 33.385 46.3772 34.2422C46.1112 34.3604 46.0816 34.4786 46.1998 34.7298C46.7762 35.9416 47.3525 37.1534 47.8993 38.3799C48.0323 38.6902 48.1653 38.6902 48.4313 38.5425C48.8303 38.3208 49.2588 38.1435 49.6874 37.9661C50.1603 37.774 50.6036 37.9366 50.7957 38.3651C50.9878 38.7937 50.84 39.2222 50.3672 39.4735C49.9386 39.6951 49.51 39.8872 49.0667 40.0793C48.8303 40.1828 48.8007 40.2715 48.8894 40.5227C49.1997 41.4241 48.9042 42.1187 48.0618 42.5472C47.4264 42.8723 46.7762 43.1827 46.1112 43.4634C45.2393 43.8329 44.4708 43.5373 44.0127 42.7098C43.7911 42.3108 43.7467 41.6753 43.3625 41.5719C43.0374 41.4832 42.5793 41.897 42.1655 42.0448C41.1459 42.4142 40.1853 42.2812 39.4021 41.498C39.1361 41.232 38.944 41.2616 38.6632 41.3946C37.6879 41.8675 36.6978 42.3108 35.7224 42.7689C35.1313 43.0349 34.6584 42.9167 34.4368 42.4733C34.2151 42.0004 34.4368 41.5571 35.0427 41.2616C36.0328 40.7887 37.0377 40.3158 38.0425 39.8577C38.279 39.7542 38.3972 39.636 38.3824 39.3405C38.3085 38.0696 38.8405 37.2125 40.008 36.6657C40.9685 36.2076 40.9685 36.2076 40.5252 35.2323C39.9784 34.05 40.2592 33.2964 41.4414 32.7348C41.9882 32.4836 42.535 32.2176 43.0965 31.9664C43.9684 31.5822 44.6925 31.7891 45.1802 32.6018C45.328 32.853 45.4462 32.8678 45.6826 32.7644C46.7023 32.2767 47.7367 31.7891 48.7859 31.3162C49.0372 31.1979 49.1406 31.0797 49.1406 30.7842C49.1258 29.4542 49.1258 28.1242 49.1406 26.809C49.1406 26.5134 49.0667 26.4247 48.7712 26.4395C48.446 26.4691 48.1062 26.4543 47.7811 26.4395C46.7909 26.3804 46.1555 25.7154 46.1407 24.7253C46.1259 23.8239 46.1407 22.9224 46.1407 22.021C46.1407 20.9274 46.7909 20.2772 47.8697 20.2329C48.9485 20.1885 48.9485 20.1885 48.9485 19.1393C48.9485 18.5187 48.9337 17.8832 48.9485 17.2626C48.9633 16.8488 48.8007 16.5828 48.4904 16.3316C47.1752 15.2971 45.8599 14.2479 44.5743 13.1839C44.2048 12.8736 43.8354 12.7258 43.3625 12.7701C43.1556 12.7849 42.9487 12.7997 42.7566 12.7701C42.0621 12.6815 41.5744 12.7701 41.2641 13.5829C40.9833 14.3514 40.2149 14.7504 39.3725 14.8095C38.8405 14.839 38.3085 14.8538 37.7765 14.8242C37.4219 14.8095 37.3332 14.9277 37.348 15.2676C37.3628 15.8439 37.3775 16.4202 37.3037 16.9818C37.1263 18.5482 35.8998 19.6566 34.3038 19.6566C33.8013 19.6566 33.6683 19.7895 33.6683 20.292C33.6979 22.1096 33.6831 23.9421 33.6831 25.7597C33.6831 26.0701 33.7127 26.2474 34.0969 26.2917C34.8949 26.3952 35.4417 27.0454 35.486 27.8434C35.5156 28.538 35.5156 29.2473 35.486 29.9418C35.4564 30.8728 34.7323 31.5378 33.8013 31.5822C33.7866 31.5822 33.757 31.5822 33.7422 31.5822C33.3432 31.6117 32.8112 31.4048 32.5896 31.6708C32.3975 31.8925 32.5305 32.4097 32.5157 32.7939C32.4861 33.9614 31.9393 34.8037 30.8606 35.2323C30.5207 35.3653 30.4468 35.5426 30.4468 35.8825C30.4616 36.9908 30.4616 38.0991 30.4468 39.1927C30.432 39.8872 29.9739 40.2715 29.3828 40.1089C28.9099 39.9759 28.7769 39.6065 28.7769 39.1631C28.7769 38.04 28.7769 36.9169 28.7769 35.7938C28.7769 35.5278 28.7326 35.38 28.4518 35.2618C27.2548 34.7889 26.7228 33.9614 26.7228 32.6609C26.7228 31.5822 26.7228 31.5822 25.644 31.5822C24.447 31.5822 23.7673 30.9024 23.7525 29.6906C23.7525 29.1143 23.7377 28.5527 23.7525 27.9764C23.7673 27.0454 24.2993 26.41 25.2155 26.2622C25.5258 26.2179 25.5554 26.0849 25.5554 25.8336C25.5554 23.8978 25.5406 21.9619 25.5554 20.026C25.5554 19.7452 25.4815 19.6566 25.1859 19.6418C22.9693 19.5383 21.8905 18.4004 21.8905 16.169C21.8905 14.8242 21.8905 14.7947 20.5605 14.8242C19.2305 14.8095 18.1961 14.307 17.7527 12.9031C17.6936 12.711 17.5754 12.6962 17.4276 12.6962C16.807 12.6962 16.1715 12.6962 15.5509 12.6962C15.3144 12.6962 15.1371 12.8145 14.9598 12.9475C13.5559 14.0854 12.152 15.2085 10.7481 16.3463C10.5117 16.5385 10.3934 16.7453 10.3934 17.0557C10.3934 17.9719 10.4082 18.9029 10.3934 19.8191C10.3934 20.1147 10.4969 20.2033 10.7777 20.1885C11.1028 20.1738 11.4427 20.1738 11.7678 20.2181C12.5953 20.3215 13.1864 20.9422 13.2012 21.7698C13.216 22.7894 13.216 23.7943 13.2012 24.814C13.1864 25.5972 12.6544 26.2031 11.8712 26.3656C11.6939 26.3952 11.5018 26.41 11.3244 26.41C10.2013 26.4247 10.2013 26.4247 10.2013 27.5626C10.2013 28.6118 10.2161 29.6611 10.1866 30.7103C10.1866 31.0206 10.29 31.1684 10.556 31.2866C11.5757 31.7447 12.5953 32.2176 13.6002 32.7053C13.8514 32.8235 13.9844 32.8383 14.147 32.5575C14.6051 31.7743 15.3588 31.5526 16.1863 31.9221C16.8365 32.2028 17.4867 32.5132 18.137 32.8383C18.9941 33.2668 19.2748 34.0796 18.9054 34.981C18.7428 35.38 18.2995 35.8086 18.4621 36.1633C18.5951 36.4588 19.1714 36.5475 19.5408 36.7544C20.5162 37.2864 21.0334 38.1139 20.9595 39.237C20.9299 39.5917 21.0334 39.7395 21.3585 39.8872C22.3486 40.3158 23.3239 40.7887 24.2993 41.2616C24.9052 41.5423 25.112 42.0152 24.8756 42.4881C24.6539 42.9314 24.181 43.0349 23.5899 42.7541C22.5703 42.2812 21.5506 41.8083 20.5457 41.3355C20.3536 41.2468 20.2354 41.1877 20.0285 41.3798C19.0975 42.3256 18.0187 42.4438 16.8513 41.8822C15.9203 41.4389 15.9203 41.4537 15.4918 42.3699C14.9006 43.6408 14.1913 43.892 12.9204 43.3157C12.4032 43.0792 11.886 42.8428 11.3688 42.6063C10.4526 42.163 10.1274 41.4684 10.4673 40.5227C10.5856 40.1828 10.4082 40.168 10.2161 40.0646C8.50189 39.2666 6.81723 38.3947 5.07346 37.6706C1.8667 36.3406 1.6007 32.2619 4.17202 30.5329C4.36413 30.3999 4.37891 30.2669 4.37891 30.0748C4.37891 28.9813 4.36413 27.9025 4.37891 26.809C4.37891 26.5282 4.30502 26.3952 4.00947 26.4395C3.86169 26.4543 3.71391 26.4247 3.56614 26.4395C2.56125 26.543 1.82237 26.1883 1.36426 25.2573C1.36426 23.9273 1.36426 22.6269 1.36426 21.3412ZM23.6195 9.90326C23.6195 12.046 23.6195 14.174 23.6195 16.3168C23.6195 17.1887 24.0185 17.7502 24.6983 17.9128C25.4815 18.0901 25.6145 17.9867 25.6145 17.1887C25.6145 17.0261 25.6145 16.8636 25.6145 16.6862C25.644 14.4696 25.511 12.2677 25.6736 10.051C25.8509 7.70138 28.2301 6.04628 30.5207 6.57828C32.4713 7.03639 33.6831 8.60282 33.6979 10.7308C33.7127 12.977 33.7127 15.2232 33.6979 17.4695C33.6979 17.8241 33.7866 17.9423 34.156 17.9276C35.2052 17.898 35.7077 17.366 35.7077 16.2281C35.7077 11.9574 35.7077 7.68661 35.7224 3.40107C35.7224 2.97252 35.6338 2.85429 35.1904 2.85429C31.5108 2.86907 27.8164 2.86907 24.1367 2.85429C23.7229 2.85429 23.6195 2.94296 23.6195 3.37151C23.6343 5.54384 23.6195 7.73094 23.6195 9.90326ZM32.0576 18.1197C32.0576 15.637 32.0723 13.1544 32.0576 10.6569C32.0428 9.17915 31.0527 8.15949 29.6931 8.15949C28.3188 8.15949 27.3139 9.17915 27.2991 10.6421C27.2844 15.6666 27.2991 20.691 27.2844 25.7302C27.2844 26.1144 27.4174 26.1883 27.7573 26.1883C29.0134 26.1735 30.2547 26.1587 31.5108 26.1883C31.9393 26.2031 32.0723 26.0849 32.0723 25.6415C32.0428 23.1293 32.0576 20.6319 32.0576 18.1197ZM53.5 17.366C53.5 16.6271 53.4852 15.8882 53.5 15.1493C53.5148 14.6617 53.3522 14.3366 52.968 14.0262C51.1799 12.6076 49.3327 11.248 47.6481 9.71115C46.3181 8.49938 44.9142 7.86394 43.1408 8.15949C43.0374 8.17427 42.9192 8.15949 42.8157 8.15949C41.6926 8.15949 41.6779 8.15949 41.6926 9.31215C41.7074 9.87371 41.4414 10.6274 41.8109 10.9525C42.1212 11.2333 42.8601 11.0707 43.4068 11.0411C44.264 10.982 44.9733 11.2628 45.6235 11.8244C46.8796 12.8736 48.1505 13.908 49.4509 14.9129C50.2637 15.5336 50.6627 16.302 50.6184 17.3217C50.574 18.1492 50.6184 18.9768 50.6036 19.8043C50.6036 20.0851 50.6627 20.2033 50.973 20.1885C51.6971 20.1738 52.4065 20.1738 53.1306 20.1885C53.4261 20.2033 53.5 20.0851 53.5 19.8043C53.4852 18.9768 53.5 18.164 53.5 17.366ZM6.59557 31.4196C5.39857 31.4048 4.40847 32.1733 4.14247 33.1929C3.86169 34.316 4.36413 35.4244 5.44291 35.9564C7.26057 36.8282 9.10778 37.6558 10.9254 38.5277C11.2358 38.6755 11.3244 38.572 11.4427 38.306C11.9747 37.1238 12.5214 35.9268 13.0978 34.7594C13.2603 34.4195 13.2012 34.3013 12.8761 34.1535C11.088 33.3407 9.31467 32.4984 7.52656 31.6708C7.18668 31.5231 6.84679 31.4344 6.59557 31.4196ZM7.24579 24.7401C8.53145 24.7401 9.81711 24.7253 11.1028 24.7549C11.4427 24.7549 11.5461 24.681 11.5313 24.3263C11.5018 23.6318 11.5165 22.9224 11.5313 22.2279C11.5313 21.9767 11.5165 21.8289 11.1914 21.8289C8.57578 21.8437 5.9749 21.8437 3.35925 21.8289C3.03414 21.8289 3.00458 21.9619 3.01936 22.2279C3.03414 22.9224 3.04892 23.6318 3.01936 24.3263C3.00458 24.6662 3.10803 24.7549 3.44792 24.7549C4.70402 24.7253 5.9749 24.7401 7.24579 24.7401ZM52.0075 24.7401C53.3079 24.7401 54.6231 24.7253 55.9236 24.7401C56.2191 24.7401 56.3373 24.6662 56.3373 24.3411C56.3078 23.6318 56.3226 22.9076 56.3373 22.1835C56.3521 21.888 56.2487 21.8141 55.9679 21.8141C53.3818 21.8289 50.7809 21.8289 48.1948 21.8141C47.9141 21.8141 47.8106 21.8732 47.8106 22.1835C47.8254 22.8929 47.8254 23.617 47.8106 24.3411C47.7958 24.6514 47.8993 24.7401 48.2096 24.7401C49.4657 24.7253 50.7366 24.7401 52.0075 24.7401ZM21.9644 9.56337C21.9644 8.95749 21.9792 8.3516 21.9644 7.74572C21.9496 7.19894 22.2008 6.46006 21.8609 6.1645C21.5211 5.8985 20.8117 6.07583 20.2502 6.07583C19.6738 6.07583 19.334 6.37139 19.3192 6.94772C19.3044 8.69149 19.3044 10.45 19.3192 12.1938C19.3192 12.7701 19.6443 13.0657 20.2206 13.0805C20.664 13.0952 21.1073 13.0657 21.5506 13.0952C21.9201 13.1248 21.9792 12.977 21.9644 12.6519C21.9496 11.6323 21.9644 10.5978 21.9644 9.56337ZM37.3775 9.57815C37.3775 10.6274 37.3923 11.6766 37.3775 12.7258C37.3775 13.0066 37.4514 13.1248 37.747 13.11C38.2051 13.0805 38.6632 13.11 39.1213 13.0952C39.6829 13.0657 40.008 12.7997 40.0228 12.2529C40.0523 10.4796 40.0523 8.72104 40.0228 6.94772C40.0228 6.38617 39.6681 6.10539 39.0918 6.09061C38.6484 6.07583 38.2051 6.10539 37.7618 6.07583C37.4367 6.06106 37.3628 6.17928 37.3775 6.47483C37.3775 7.50927 37.3775 8.54371 37.3775 9.57815ZM47.2786 40.9365C47.2638 40.8921 47.2491 40.833 47.2195 40.7887C46.1112 38.4095 45.0028 36.045 43.8945 33.6658C43.7911 33.4589 43.6728 33.4737 43.5103 33.5624C43.0965 33.7693 42.6975 33.9762 42.269 34.1387C41.9734 34.2569 41.9882 34.3751 42.1064 34.6264C43.1852 36.9317 44.264 39.237 45.3427 41.5571C45.461 41.8083 45.5496 41.897 45.8304 41.7492C46.2146 41.5423 46.6284 41.3798 47.0274 41.1877C47.1161 41.1138 47.2638 41.099 47.2786 40.9365ZM17.339 34.3751C17.339 34.2422 17.2207 34.2126 17.1321 34.1683C16.7774 34.0057 16.4227 33.8727 16.0976 33.6806C15.6986 33.4294 15.5065 33.5033 15.2996 33.9466C14.4425 35.8529 13.5411 37.7297 12.6692 39.636C12.4623 40.0793 12.019 40.6113 12.1372 40.966C12.2702 41.3798 12.9943 41.4241 13.4229 41.6901C13.748 41.897 13.9105 41.8083 14.0731 41.4685C15.1075 39.2075 16.1715 36.9465 17.2207 34.6855C17.2503 34.5673 17.2946 34.4786 17.339 34.3751ZM29.6636 27.8286C28.7621 27.8286 27.8607 27.8286 26.9593 27.8286C26.4864 27.8286 25.8361 27.6661 25.5701 27.9173C25.2598 28.1981 25.511 28.8483 25.4667 29.3507C25.4224 29.7497 25.5406 29.8827 25.9691 29.8679C28.0824 29.8384 30.2104 29.8532 32.3236 29.8532C32.8112 29.8532 33.4762 30.0157 33.757 29.7645C34.0821 29.469 33.8161 28.7892 33.8752 28.2867C33.9196 27.873 33.7422 27.8138 33.3728 27.8138C32.1315 27.8434 30.9049 27.8286 29.6636 27.8286ZM50.7957 30.3113C51.5641 29.9714 52.2587 29.7202 53.0419 29.7793C53.3227 29.7941 53.3227 29.6463 53.3227 29.4394C53.3227 28.538 53.3079 27.6365 53.3227 26.7351C53.3227 26.4691 53.234 26.3952 52.968 26.3952C52.3621 26.41 51.7563 26.41 51.1504 26.3952C50.8548 26.3804 50.7809 26.4986 50.7957 26.7794C50.8105 27.9321 50.7957 29.0847 50.7957 30.3113ZM8.53145 30.2965C8.53145 29.07 8.53145 27.9173 8.53145 26.7646C8.53145 26.543 8.53145 26.3804 8.22112 26.3804C7.58567 26.3952 6.93546 26.3952 6.30001 26.3804C6.09313 26.3804 6.00446 26.4395 6.00446 26.6612C6.01924 27.5922 6.01924 28.538 6.00446 29.469C6.00446 29.6758 6.06357 29.7645 6.28524 29.7497C7.06846 29.7202 7.77779 29.9566 8.53145 30.2965ZM19.3044 39.0597C19.3044 38.4981 18.6394 37.8479 17.7971 37.7592C17.3833 37.7149 17.4424 38.2174 17.2799 38.4686C17.1469 38.6607 17.073 38.8971 16.9695 39.104C16.6001 39.8872 16.6001 39.8872 17.4129 40.2715C18.4325 40.7443 19.2896 40.1976 19.3044 39.0597ZM41.2936 40.4931C41.7517 40.4045 42.2837 40.2123 42.6384 39.8577C42.8157 39.6803 42.3872 39.237 42.269 38.8971C42.2394 38.8232 42.2099 38.7641 42.1803 38.705C41.6631 37.5819 41.6631 37.5819 40.5843 38.173C40.1114 38.4242 39.9341 38.8232 40.0671 39.3257C40.2592 40.0941 40.673 40.5079 41.2936 40.4931ZM29.7079 31.5083C28.3631 31.5083 28.3631 31.5083 28.4518 32.7792C28.4961 33.3112 28.8212 33.6363 29.368 33.6954C30.1808 33.784 30.7719 33.5476 30.8606 33.0008C30.9345 32.5427 31.0231 31.9959 30.8458 31.5969C30.7276 31.3309 30.1365 31.5378 29.767 31.4935C29.7375 31.5083 29.7227 31.5083 29.7079 31.5083Z" fill="#1C468C"/>
<path d="M1.36439 48.7683C1.52694 48.7388 1.52694 48.591 1.58605 48.4876C1.98505 47.8078 2.56138 47.4531 3.3446 47.4531C11.4132 47.4531 24.196 47.4531 32.2646 47.4531C32.9 47.4531 33.2842 47.793 33.2695 48.2955C33.2547 48.7979 32.8852 49.1082 32.235 49.1082C24.329 49.1082 11.7088 49.1082 3.80271 49.1082C3.01949 49.1082 3.01949 49.1082 3.01949 49.8914C3.01949 50.2609 3.03427 50.6303 3.01949 50.9998C2.98994 51.4283 3.18205 51.5761 3.56627 51.5318C3.64015 51.517 3.71404 51.5318 3.78793 51.5318C21.0335 51.5318 38.2791 51.5318 55.5247 51.5318C56.3227 51.5318 56.3227 51.5318 56.3227 50.7486C56.3227 50.3643 56.3079 49.9801 56.3227 49.5811C56.3375 49.2117 56.1749 49.0787 55.835 49.1082C55.702 49.123 55.5838 49.1082 55.4508 49.1082C47.663 49.1082 39.8603 49.1082 32.0725 49.1082C31.9099 49.1082 31.7326 49.123 31.57 49.1082C31.0971 49.0639 30.8311 48.7979 30.7868 48.325C30.7425 47.8817 31.0824 47.5122 31.5405 47.4679C31.6883 47.4531 31.836 47.4531 31.9838 47.4531C39.9047 47.4531 47.8255 47.4531 55.7464 47.4531C57.2241 47.4531 57.9778 48.2068 57.9778 49.6993C57.9778 50.2018 57.9778 50.6894 57.9778 51.1919C57.963 52.3593 57.1502 53.1721 55.9976 53.1869C54.8154 53.2017 53.6332 53.1869 52.4657 53.1869C47.0275 53.1869 41.5893 53.2017 36.1659 53.1721C35.6043 53.1721 35.5009 53.3199 35.5305 53.8371C35.5748 54.5908 35.5157 55.3444 35.5452 56.0981C35.5896 56.9552 35.2497 57.5315 34.4369 57.8419C31.2301 57.8419 28.0234 57.8419 24.8166 57.8419C24.0334 57.4429 23.7674 56.8074 23.8117 55.9503C23.8561 55.2114 23.7822 54.4725 23.8265 53.7484C23.8561 53.2755 23.7083 53.1869 23.2502 53.1869C16.8071 53.2017 10.364 53.1721 3.92093 53.2164C2.72394 53.2164 1.85205 52.8913 1.34961 51.7682C1.36439 50.7486 1.36439 49.7584 1.36439 48.7683ZM29.6637 53.1721C28.3928 53.1721 27.1219 53.1721 25.8511 53.1721C25.5851 53.1721 25.4521 53.2017 25.4668 53.5268C25.4964 54.2952 25.4816 55.0784 25.4668 55.8469C25.4668 56.1129 25.5555 56.1867 25.8067 56.1867C28.378 56.172 30.9641 56.172 33.5355 56.1867C33.8162 56.1867 33.8754 56.0981 33.8606 55.8321C33.8458 55.0784 33.8458 54.3248 33.8606 53.5711C33.8754 53.2608 33.7719 53.1721 33.4616 53.1721C32.2055 53.1869 30.9346 53.1721 29.6637 53.1721Z" fill="#1C468C"/>
</svg>
