<svg width="60" height="60" viewBox="0 0 60 60" fill="none" xmlns="http://www.w3.org/2000/svg">
<mask id="path-1-outside-1_167_404" maskUnits="userSpaceOnUse" x="1.03516" y="9.38696" width="58" height="45" fill="black">
<rect fill="white" x="1.03516" y="9.38696" width="58" height="45"/>
<path d="M23.4138 31.2199C23.4778 31.9363 23.4778 32.6399 23.4138 33.3563C23.1707 33.5354 23.1579 33.7146 23.401 33.9065C23.3626 34.4182 23.0428 34.6101 22.5694 34.5589C22.1089 34.5077 21.9298 34.1879 21.9298 33.7529C21.9298 33.6634 21.917 33.5738 21.9298 33.4971C22.4287 31.0536 21.0726 29.2369 19.8573 27.3819C19.7165 27.1644 19.5374 27.1516 19.32 27.1516C18.45 27.1516 17.5801 27.1516 16.6974 27.1516C15.9937 27.1516 15.3669 27.4075 14.804 27.8169C12.3477 29.6079 9.85299 31.3606 7.44786 33.2028C6.53955 33.8937 5.59285 34.5461 4.65895 35.1986C3.75063 35.8254 3.37963 36.8105 3.64828 37.8084C3.92973 38.819 4.73571 39.4715 5.83592 39.5355C9.02143 39.7529 12.2069 39.9448 15.3797 40.1879C15.8914 40.2263 16.0321 40.0728 16.0705 39.5866C16.1217 38.7551 16.2112 37.9363 16.3519 37.1175C16.4287 36.657 16.2752 36.5419 15.853 36.4779C13.8573 36.1453 11.8743 35.7998 9.89137 35.4416C9.20053 35.3265 8.91908 35.0195 9.00864 34.5205C9.09819 34.0216 9.48198 33.8297 10.16 33.9448C11.4521 34.1751 12.757 34.3926 14.0492 34.6357C14.3818 34.6996 14.6632 34.6612 14.9447 34.4566C15.4692 34.0983 16.0321 33.7913 16.5694 33.4459C17.0044 33.1644 17.4394 33.1389 17.7336 33.5994C18.0278 34.0728 17.8232 34.4438 17.3882 34.7252C17.2347 34.8148 17.03 34.8531 16.9276 35.1474C17.6057 35.1986 18.2581 35.2753 18.8978 35.2753C20.369 35.2625 21.6995 35.6463 22.9149 36.4779C23.6952 37.0152 24.5396 37.4885 25.3711 37.9619C26.1259 38.3969 26.5353 39.0109 26.4842 39.8809C26.4714 40.1495 26.5993 40.2519 26.7912 40.367C27.4436 40.7636 28.1089 41.1474 28.7486 41.5568C28.966 41.6975 29.1835 41.6975 29.4138 41.6847C30.2837 41.6335 31.1537 41.5824 32.0236 41.544C33.0855 41.7999 34.1473 41.7359 35.2219 41.5312C37.4607 41.6335 39.5588 42.1964 41.5162 43.4758C41.7592 41.9918 42.3733 40.7252 43.4607 39.7274C45.303 38.0387 47.4522 37.399 49.8829 38.0259C53.3371 38.9214 55.0002 42.4395 53.5674 45.7018C53.4906 45.8809 53.4139 46.0472 53.3499 46.2263C53.3243 46.2647 53.3115 46.3031 53.2859 46.3542C53.3371 46.3542 53.3883 46.3414 53.4394 46.3414C54.2838 46.06 55.1154 45.7146 56.0365 46.0088C57.2134 46.3798 57.981 47.1602 58.1985 48.3756C58.416 49.5781 58.0194 50.6016 57.0343 51.3564C56.5354 51.7402 56.0621 51.7402 55.8062 51.3436C55.4736 50.8574 55.6655 50.4864 56.1004 50.1538C56.7657 49.6549 56.932 48.8361 56.5482 48.1709C56.1516 47.4928 55.4096 47.2626 54.5397 47.5824C49.1665 49.5397 43.8062 51.4843 38.433 53.4545C38.0492 53.5952 37.6654 53.6592 37.256 53.6592C25.9341 53.6592 14.6121 53.6592 3.29007 53.6592C3.16214 53.6592 3.03421 53.6592 2.90628 53.6592C2.40734 53.6464 2.07472 53.4161 2.06192 52.9044C2.06192 52.3926 2.39455 52.1496 2.89348 52.1496C4.1728 52.1496 5.45213 52.1496 6.70586 52.1496C6.83379 51.9321 6.65469 51.8169 6.59072 51.6634C5.6952 49.527 7.02569 47.173 9.32847 47.0067C11.6824 46.8404 14.0492 46.8532 16.4031 46.7892C17.2091 46.7636 18.0151 46.7508 18.8338 46.738C19.1409 46.738 19.2688 46.6613 19.2816 46.3031C19.3455 44.5376 19.3583 44.5632 17.5929 44.8063C12.8466 45.4715 8.08753 46.1112 3.32845 46.7636C3.17493 46.7892 3.03421 46.802 2.88069 46.802C2.43293 46.8276 2.12589 46.6357 2.04913 46.1879C1.97237 45.7146 2.21544 45.3947 2.68879 45.318C3.73784 45.1517 4.79967 45.011 5.84871 44.8702C12.6931 43.9363 19.5374 43.0408 26.4586 42.0045C26.0236 41.6591 25.7294 41.3009 25.1153 41.544C24.3605 41.8382 23.6952 41.5184 23.094 41.0706C22.6974 40.7764 22.4159 40.6741 21.9937 41.0962C21.3797 41.6975 20.5609 41.8894 19.691 41.8638C14.9447 41.7231 10.224 41.3137 5.4905 41.0067C3.94253 40.9171 2.58645 39.7146 2.17706 38.1666C1.76768 36.6058 2.34338 34.9939 3.71225 34.0088C5.75916 32.5248 7.80607 31.0408 9.85299 29.5568C11.0555 28.6868 12.2965 27.8425 13.4607 26.9214C14.6376 25.9875 15.9298 25.5269 17.4266 25.6548C17.7848 25.6804 18.143 25.6804 18.5012 25.6932C18.5396 25.7828 18.5907 25.8083 18.6291 25.6932C18.6931 25.4246 18.45 25.335 18.3221 25.1815C17.6441 24.3243 17.1579 23.3904 17.0811 22.2902C17.2603 22.1751 17.2219 22.0855 17.0428 22.0216C16.9532 20.9597 16.9788 19.8979 17.03 18.8361C17.2858 18.7337 17.273 18.6058 17.0811 18.4395C17.1707 16.4437 17.2858 14.448 17.3498 12.4522C17.3754 11.7358 17.6952 11.3009 18.3093 11.0322C19.1025 10.6868 19.934 10.5588 20.7912 10.4821C22.659 10.3286 24.5268 10.3158 26.369 10.7891C27.6739 11.1345 27.9682 11.4672 28.0321 12.8105C28.1601 15.4203 28.2368 18.0301 28.3648 20.6527C28.4543 22.5077 28.0833 24.1964 26.6505 25.6165C27.0982 25.6548 27.4436 25.6676 27.7891 25.706C30.7443 26.0386 33.0087 28.4182 33.0855 31.3862C33.1494 33.7018 33.0982 36.0173 33.111 38.3457C33.111 38.8446 32.8936 39.2028 32.3818 39.2156C31.8317 39.2284 31.6014 38.8574 31.6014 38.3329C31.6014 35.9278 31.6014 33.5227 31.5886 31.1175C31.6142 31.0792 31.6398 31.0536 31.6654 31.0152C31.6398 31.0024 31.6014 30.9896 31.5759 30.9768C30.9234 28.0344 28.7486 26.9214 25.8829 27.1516C25.6398 27.1644 25.563 27.3179 25.4607 27.4843C24.7827 28.6101 24.1046 29.7231 23.4266 30.8489C23.1579 30.9512 23.2091 31.0919 23.4138 31.2199ZM42.8851 50.0899C43.7294 50.0771 44.3946 49.5909 45.1622 49.3351C44.5738 49.0792 44.0876 48.7466 43.5887 48.4267C43.3584 48.9641 43.1281 49.4886 42.8978 50.0259C42.885 50.0387 42.8978 50.0643 42.8978 50.0899C42.885 50.1154 42.8595 50.1538 42.8467 50.1794C42.8723 50.1794 42.885 50.1794 42.9106 50.1794C42.8978 50.1538 42.8851 50.1282 42.8851 50.0899ZM35.3243 52.0344C35.3243 52.0728 35.3243 52.0984 35.3371 52.1368C35.836 52.1368 36.3349 52.1624 36.8339 52.1368C38.9192 51.9833 40.5951 51.1133 41.6185 49.2199C42.5652 47.4672 42.1686 45.8553 40.5567 44.6911C39.7379 44.1026 38.804 43.7316 37.8445 43.4758C35.8232 42.9385 33.7763 42.9512 31.7038 43.0664C28.1729 43.2583 24.6931 43.8212 21.2006 44.3457C20.9703 44.3841 20.804 44.3969 20.8168 44.7039C20.8424 45.254 20.8296 45.8041 20.8168 46.367C20.8168 46.6229 20.9063 46.6997 21.1494 46.6869C22.4159 46.6229 23.6952 46.6997 24.9746 46.495C27.6355 46.0728 30.3093 45.6634 32.9703 45.2668C33.7123 45.1517 34.0961 45.3564 34.1601 45.8553C34.224 46.3542 33.917 46.6485 33.1622 46.7636C32.0876 46.9299 31.0257 47.0962 29.9511 47.2498C27.9298 47.5312 25.934 48.0302 23.8999 48.1069C19.2304 48.2732 14.5481 48.3628 9.86578 48.4779C8.67601 48.5035 7.84445 49.2839 7.85725 50.3329C7.87004 51.3948 8.71439 52.1496 9.89137 52.1496C14.6121 52.1496 19.3328 52.1496 24.0534 52.1496C24.3477 52.1496 24.6419 52.124 24.9362 52.0728C29.0812 51.4587 33.2134 50.8319 37.3584 50.1922C37.8829 50.1154 38.2539 50.2434 38.3946 50.7679C38.5226 51.2157 38.2027 51.5739 37.5887 51.6762C36.8211 51.8041 36.0663 51.9193 35.3243 52.0344ZM48.1814 39.3308C46.3008 39.4203 44.7912 40.1879 43.7678 41.7615C42.0407 44.3841 43.4352 47.5568 46.5183 48.0813C48.4501 48.4139 50.1004 47.7871 51.3797 46.3287C52.5695 44.9854 52.9789 43.4118 52.1985 41.7231C51.4181 40.0216 49.9469 39.3819 48.1814 39.3308ZM26.7144 15.1644C26.6505 15.1644 26.5993 15.1644 26.5353 15.1644C26.5353 14.3968 26.5225 13.6292 26.5481 12.8744C26.5609 12.5034 26.4074 12.3371 26.062 12.2603C23.8104 11.7614 21.5588 11.7486 19.3072 12.2731C19.0257 12.3371 18.885 12.465 18.8722 12.7849C18.821 14.3073 18.7571 15.8424 18.6419 17.3648C18.6163 17.8254 18.821 17.9661 19.192 18.0429C21.5844 18.5418 23.9639 18.4906 26.3306 17.9149C26.6633 17.8382 26.7528 17.6719 26.74 17.3265C26.6888 16.61 26.7144 15.8808 26.7144 15.1644ZM18.6291 22.4821C19.2688 24.657 20.9703 25.8083 23.1579 25.6165C24.8978 25.4629 26.4842 24.0685 26.6633 22.4949C25.3328 22.7124 24.0151 23.0962 22.7102 23.0962C21.3797 23.0962 20.0364 22.7124 18.6291 22.4821ZM19.2176 36.8233C18.8722 36.8105 18.6803 36.8233 18.4884 36.7849C18.0023 36.6698 17.8871 36.8873 17.8487 37.335C17.7848 38.205 17.6568 39.0621 17.5545 39.9321C17.5289 40.1495 17.5289 40.2903 17.8104 40.3031C18.5524 40.3158 19.2944 40.4182 20.0364 40.3542C20.6505 40.3158 21.2134 40.0856 21.418 39.3436C21.5716 38.7935 22.0577 38.6527 22.5822 38.9598C23.0812 39.254 23.5417 39.5738 24.0279 39.8809C24.3093 40.06 24.6291 40.367 24.9106 39.9448C25.2048 39.5099 24.7699 39.3691 24.4884 39.2028C23.6569 38.6911 22.7997 38.2178 21.9809 37.6932C21.0982 37.092 20.1515 36.721 19.2176 36.8233ZM26.804 19.3606C24.3349 19.9491 21.8786 20.0642 19.3967 19.6164C18.5012 19.4501 18.5012 19.4373 18.514 20.3968C18.514 20.6271 18.3861 20.9341 18.7954 20.9853C20.6121 21.19 22.3903 21.8936 24.2581 21.3819C24.6675 21.2668 25.0897 21.2156 25.5119 21.1516C26.8935 20.9341 26.8935 20.9341 26.8424 19.5525C26.8424 19.5013 26.8296 19.4629 26.804 19.3606ZM22.6974 29.0962C23.1195 28.3926 23.5033 27.7657 23.9255 27.0493C23.0556 27.1772 22.288 27.1516 21.4436 27.0621C21.8786 27.7529 22.2624 28.3798 22.6974 29.0962Z"/>
</mask>
<path d="M23.4138 31.2199C23.4778 31.9363 23.4778 32.6399 23.4138 33.3563C23.1707 33.5354 23.1579 33.7146 23.401 33.9065C23.3626 34.4182 23.0428 34.6101 22.5694 34.5589C22.1089 34.5077 21.9298 34.1879 21.9298 33.7529C21.9298 33.6634 21.917 33.5738 21.9298 33.4971C22.4287 31.0536 21.0726 29.2369 19.8573 27.3819C19.7165 27.1644 19.5374 27.1516 19.32 27.1516C18.45 27.1516 17.5801 27.1516 16.6974 27.1516C15.9937 27.1516 15.3669 27.4075 14.804 27.8169C12.3477 29.6079 9.85299 31.3606 7.44786 33.2028C6.53955 33.8937 5.59285 34.5461 4.65895 35.1986C3.75063 35.8254 3.37963 36.8105 3.64828 37.8084C3.92973 38.819 4.73571 39.4715 5.83592 39.5355C9.02143 39.7529 12.2069 39.9448 15.3797 40.1879C15.8914 40.2263 16.0321 40.0728 16.0705 39.5866C16.1217 38.7551 16.2112 37.9363 16.3519 37.1175C16.4287 36.657 16.2752 36.5419 15.853 36.4779C13.8573 36.1453 11.8743 35.7998 9.89137 35.4416C9.20053 35.3265 8.91908 35.0195 9.00864 34.5205C9.09819 34.0216 9.48198 33.8297 10.16 33.9448C11.4521 34.1751 12.757 34.3926 14.0492 34.6357C14.3818 34.6996 14.6632 34.6612 14.9447 34.4566C15.4692 34.0983 16.0321 33.7913 16.5694 33.4459C17.0044 33.1644 17.4394 33.1389 17.7336 33.5994C18.0278 34.0728 17.8232 34.4438 17.3882 34.7252C17.2347 34.8148 17.03 34.8531 16.9276 35.1474C17.6057 35.1986 18.2581 35.2753 18.8978 35.2753C20.369 35.2625 21.6995 35.6463 22.9149 36.4779C23.6952 37.0152 24.5396 37.4885 25.3711 37.9619C26.1259 38.3969 26.5353 39.0109 26.4842 39.8809C26.4714 40.1495 26.5993 40.2519 26.7912 40.367C27.4436 40.7636 28.1089 41.1474 28.7486 41.5568C28.966 41.6975 29.1835 41.6975 29.4138 41.6847C30.2837 41.6335 31.1537 41.5824 32.0236 41.544C33.0855 41.7999 34.1473 41.7359 35.2219 41.5312C37.4607 41.6335 39.5588 42.1964 41.5162 43.4758C41.7592 41.9918 42.3733 40.7252 43.4607 39.7274C45.303 38.0387 47.4522 37.399 49.8829 38.0259C53.3371 38.9214 55.0002 42.4395 53.5674 45.7018C53.4906 45.8809 53.4139 46.0472 53.3499 46.2263C53.3243 46.2647 53.3115 46.3031 53.2859 46.3542C53.3371 46.3542 53.3883 46.3414 53.4394 46.3414C54.2838 46.06 55.1154 45.7146 56.0365 46.0088C57.2134 46.3798 57.981 47.1602 58.1985 48.3756C58.416 49.5781 58.0194 50.6016 57.0343 51.3564C56.5354 51.7402 56.0621 51.7402 55.8062 51.3436C55.4736 50.8574 55.6655 50.4864 56.1004 50.1538C56.7657 49.6549 56.932 48.8361 56.5482 48.1709C56.1516 47.4928 55.4096 47.2626 54.5397 47.5824C49.1665 49.5397 43.8062 51.4843 38.433 53.4545C38.0492 53.5952 37.6654 53.6592 37.256 53.6592C25.9341 53.6592 14.6121 53.6592 3.29007 53.6592C3.16214 53.6592 3.03421 53.6592 2.90628 53.6592C2.40734 53.6464 2.07472 53.4161 2.06192 52.9044C2.06192 52.3926 2.39455 52.1496 2.89348 52.1496C4.1728 52.1496 5.45213 52.1496 6.70586 52.1496C6.83379 51.9321 6.65469 51.8169 6.59072 51.6634C5.6952 49.527 7.02569 47.173 9.32847 47.0067C11.6824 46.8404 14.0492 46.8532 16.4031 46.7892C17.2091 46.7636 18.0151 46.7508 18.8338 46.738C19.1409 46.738 19.2688 46.6613 19.2816 46.3031C19.3455 44.5376 19.3583 44.5632 17.5929 44.8063C12.8466 45.4715 8.08753 46.1112 3.32845 46.7636C3.17493 46.7892 3.03421 46.802 2.88069 46.802C2.43293 46.8276 2.12589 46.6357 2.04913 46.1879C1.97237 45.7146 2.21544 45.3947 2.68879 45.318C3.73784 45.1517 4.79967 45.011 5.84871 44.8702C12.6931 43.9363 19.5374 43.0408 26.4586 42.0045C26.0236 41.6591 25.7294 41.3009 25.1153 41.544C24.3605 41.8382 23.6952 41.5184 23.094 41.0706C22.6974 40.7764 22.4159 40.6741 21.9937 41.0962C21.3797 41.6975 20.5609 41.8894 19.691 41.8638C14.9447 41.7231 10.224 41.3137 5.4905 41.0067C3.94253 40.9171 2.58645 39.7146 2.17706 38.1666C1.76768 36.6058 2.34338 34.9939 3.71225 34.0088C5.75916 32.5248 7.80607 31.0408 9.85299 29.5568C11.0555 28.6868 12.2965 27.8425 13.4607 26.9214C14.6376 25.9875 15.9298 25.5269 17.4266 25.6548C17.7848 25.6804 18.143 25.6804 18.5012 25.6932C18.5396 25.7828 18.5907 25.8083 18.6291 25.6932C18.6931 25.4246 18.45 25.335 18.3221 25.1815C17.6441 24.3243 17.1579 23.3904 17.0811 22.2902C17.2603 22.1751 17.2219 22.0855 17.0428 22.0216C16.9532 20.9597 16.9788 19.8979 17.03 18.8361C17.2858 18.7337 17.273 18.6058 17.0811 18.4395C17.1707 16.4437 17.2858 14.448 17.3498 12.4522C17.3754 11.7358 17.6952 11.3009 18.3093 11.0322C19.1025 10.6868 19.934 10.5588 20.7912 10.4821C22.659 10.3286 24.5268 10.3158 26.369 10.7891C27.6739 11.1345 27.9682 11.4672 28.0321 12.8105C28.1601 15.4203 28.2368 18.0301 28.3648 20.6527C28.4543 22.5077 28.0833 24.1964 26.6505 25.6165C27.0982 25.6548 27.4436 25.6676 27.7891 25.706C30.7443 26.0386 33.0087 28.4182 33.0855 31.3862C33.1494 33.7018 33.0982 36.0173 33.111 38.3457C33.111 38.8446 32.8936 39.2028 32.3818 39.2156C31.8317 39.2284 31.6014 38.8574 31.6014 38.3329C31.6014 35.9278 31.6014 33.5227 31.5886 31.1175C31.6142 31.0792 31.6398 31.0536 31.6654 31.0152C31.6398 31.0024 31.6014 30.9896 31.5759 30.9768C30.9234 28.0344 28.7486 26.9214 25.8829 27.1516C25.6398 27.1644 25.563 27.3179 25.4607 27.4843C24.7827 28.6101 24.1046 29.7231 23.4266 30.8489C23.1579 30.9512 23.2091 31.0919 23.4138 31.2199ZM42.8851 50.0899C43.7294 50.0771 44.3946 49.5909 45.1622 49.3351C44.5738 49.0792 44.0876 48.7466 43.5887 48.4267C43.3584 48.9641 43.1281 49.4886 42.8978 50.0259C42.885 50.0387 42.8978 50.0643 42.8978 50.0899C42.885 50.1154 42.8595 50.1538 42.8467 50.1794C42.8723 50.1794 42.885 50.1794 42.9106 50.1794C42.8978 50.1538 42.8851 50.1282 42.8851 50.0899ZM35.3243 52.0344C35.3243 52.0728 35.3243 52.0984 35.3371 52.1368C35.836 52.1368 36.3349 52.1624 36.8339 52.1368C38.9192 51.9833 40.5951 51.1133 41.6185 49.2199C42.5652 47.4672 42.1686 45.8553 40.5567 44.6911C39.7379 44.1026 38.804 43.7316 37.8445 43.4758C35.8232 42.9385 33.7763 42.9512 31.7038 43.0664C28.1729 43.2583 24.6931 43.8212 21.2006 44.3457C20.9703 44.3841 20.804 44.3969 20.8168 44.7039C20.8424 45.254 20.8296 45.8041 20.8168 46.367C20.8168 46.6229 20.9063 46.6997 21.1494 46.6869C22.4159 46.6229 23.6952 46.6997 24.9746 46.495C27.6355 46.0728 30.3093 45.6634 32.9703 45.2668C33.7123 45.1517 34.0961 45.3564 34.1601 45.8553C34.224 46.3542 33.917 46.6485 33.1622 46.7636C32.0876 46.9299 31.0257 47.0962 29.9511 47.2498C27.9298 47.5312 25.934 48.0302 23.8999 48.1069C19.2304 48.2732 14.5481 48.3628 9.86578 48.4779C8.67601 48.5035 7.84445 49.2839 7.85725 50.3329C7.87004 51.3948 8.71439 52.1496 9.89137 52.1496C14.6121 52.1496 19.3328 52.1496 24.0534 52.1496C24.3477 52.1496 24.6419 52.124 24.9362 52.0728C29.0812 51.4587 33.2134 50.8319 37.3584 50.1922C37.8829 50.1154 38.2539 50.2434 38.3946 50.7679C38.5226 51.2157 38.2027 51.5739 37.5887 51.6762C36.8211 51.8041 36.0663 51.9193 35.3243 52.0344ZM48.1814 39.3308C46.3008 39.4203 44.7912 40.1879 43.7678 41.7615C42.0407 44.3841 43.4352 47.5568 46.5183 48.0813C48.4501 48.4139 50.1004 47.7871 51.3797 46.3287C52.5695 44.9854 52.9789 43.4118 52.1985 41.7231C51.4181 40.0216 49.9469 39.3819 48.1814 39.3308ZM26.7144 15.1644C26.6505 15.1644 26.5993 15.1644 26.5353 15.1644C26.5353 14.3968 26.5225 13.6292 26.5481 12.8744C26.5609 12.5034 26.4074 12.3371 26.062 12.2603C23.8104 11.7614 21.5588 11.7486 19.3072 12.2731C19.0257 12.3371 18.885 12.465 18.8722 12.7849C18.821 14.3073 18.7571 15.8424 18.6419 17.3648C18.6163 17.8254 18.821 17.9661 19.192 18.0429C21.5844 18.5418 23.9639 18.4906 26.3306 17.9149C26.6633 17.8382 26.7528 17.6719 26.74 17.3265C26.6888 16.61 26.7144 15.8808 26.7144 15.1644ZM18.6291 22.4821C19.2688 24.657 20.9703 25.8083 23.1579 25.6165C24.8978 25.4629 26.4842 24.0685 26.6633 22.4949C25.3328 22.7124 24.0151 23.0962 22.7102 23.0962C21.3797 23.0962 20.0364 22.7124 18.6291 22.4821ZM19.2176 36.8233C18.8722 36.8105 18.6803 36.8233 18.4884 36.7849C18.0023 36.6698 17.8871 36.8873 17.8487 37.335C17.7848 38.205 17.6568 39.0621 17.5545 39.9321C17.5289 40.1495 17.5289 40.2903 17.8104 40.3031C18.5524 40.3158 19.2944 40.4182 20.0364 40.3542C20.6505 40.3158 21.2134 40.0856 21.418 39.3436C21.5716 38.7935 22.0577 38.6527 22.5822 38.9598C23.0812 39.254 23.5417 39.5738 24.0279 39.8809C24.3093 40.06 24.6291 40.367 24.9106 39.9448C25.2048 39.5099 24.7699 39.3691 24.4884 39.2028C23.6569 38.6911 22.7997 38.2178 21.9809 37.6932C21.0982 37.092 20.1515 36.721 19.2176 36.8233ZM26.804 19.3606C24.3349 19.9491 21.8786 20.0642 19.3967 19.6164C18.5012 19.4501 18.5012 19.4373 18.514 20.3968C18.514 20.6271 18.3861 20.9341 18.7954 20.9853C20.6121 21.19 22.3903 21.8936 24.2581 21.3819C24.6675 21.2668 25.0897 21.2156 25.5119 21.1516C26.8935 20.9341 26.8935 20.9341 26.8424 19.5525C26.8424 19.5013 26.8296 19.4629 26.804 19.3606ZM22.6974 29.0962C23.1195 28.3926 23.5033 27.7657 23.9255 27.0493C23.0556 27.1772 22.288 27.1516 21.4436 27.0621C21.8786 27.7529 22.2624 28.3798 22.6974 29.0962Z" fill="#1C468C"/>
<path d="M23.4138 31.2199C23.4778 31.9363 23.4778 32.6399 23.4138 33.3563C23.1707 33.5354 23.1579 33.7146 23.401 33.9065C23.3626 34.4182 23.0428 34.6101 22.5694 34.5589C22.1089 34.5077 21.9298 34.1879 21.9298 33.7529C21.9298 33.6634 21.917 33.5738 21.9298 33.4971C22.4287 31.0536 21.0726 29.2369 19.8573 27.3819C19.7165 27.1644 19.5374 27.1516 19.32 27.1516C18.45 27.1516 17.5801 27.1516 16.6974 27.1516C15.9937 27.1516 15.3669 27.4075 14.804 27.8169C12.3477 29.6079 9.85299 31.3606 7.44786 33.2028C6.53955 33.8937 5.59285 34.5461 4.65895 35.1986C3.75063 35.8254 3.37963 36.8105 3.64828 37.8084C3.92973 38.819 4.73571 39.4715 5.83592 39.5355C9.02143 39.7529 12.2069 39.9448 15.3797 40.1879C15.8914 40.2263 16.0321 40.0728 16.0705 39.5866C16.1217 38.7551 16.2112 37.9363 16.3519 37.1175C16.4287 36.657 16.2752 36.5419 15.853 36.4779C13.8573 36.1453 11.8743 35.7998 9.89137 35.4416C9.20053 35.3265 8.91908 35.0195 9.00864 34.5205C9.09819 34.0216 9.48198 33.8297 10.16 33.9448C11.4521 34.1751 12.757 34.3926 14.0492 34.6357C14.3818 34.6996 14.6632 34.6612 14.9447 34.4566C15.4692 34.0983 16.0321 33.7913 16.5694 33.4459C17.0044 33.1644 17.4394 33.1389 17.7336 33.5994C18.0278 34.0728 17.8232 34.4438 17.3882 34.7252C17.2347 34.8148 17.03 34.8531 16.9276 35.1474C17.6057 35.1986 18.2581 35.2753 18.8978 35.2753C20.369 35.2625 21.6995 35.6463 22.9149 36.4779C23.6952 37.0152 24.5396 37.4885 25.3711 37.9619C26.1259 38.3969 26.5353 39.0109 26.4842 39.8809C26.4714 40.1495 26.5993 40.2519 26.7912 40.367C27.4436 40.7636 28.1089 41.1474 28.7486 41.5568C28.966 41.6975 29.1835 41.6975 29.4138 41.6847C30.2837 41.6335 31.1537 41.5824 32.0236 41.544C33.0855 41.7999 34.1473 41.7359 35.2219 41.5312C37.4607 41.6335 39.5588 42.1964 41.5162 43.4758C41.7592 41.9918 42.3733 40.7252 43.4607 39.7274C45.303 38.0387 47.4522 37.399 49.8829 38.0259C53.3371 38.9214 55.0002 42.4395 53.5674 45.7018C53.4906 45.8809 53.4139 46.0472 53.3499 46.2263C53.3243 46.2647 53.3115 46.3031 53.2859 46.3542C53.3371 46.3542 53.3883 46.3414 53.4394 46.3414C54.2838 46.06 55.1154 45.7146 56.0365 46.0088C57.2134 46.3798 57.981 47.1602 58.1985 48.3756C58.416 49.5781 58.0194 50.6016 57.0343 51.3564C56.5354 51.7402 56.0621 51.7402 55.8062 51.3436C55.4736 50.8574 55.6655 50.4864 56.1004 50.1538C56.7657 49.6549 56.932 48.8361 56.5482 48.1709C56.1516 47.4928 55.4096 47.2626 54.5397 47.5824C49.1665 49.5397 43.8062 51.4843 38.433 53.4545C38.0492 53.5952 37.6654 53.6592 37.256 53.6592C25.9341 53.6592 14.6121 53.6592 3.29007 53.6592C3.16214 53.6592 3.03421 53.6592 2.90628 53.6592C2.40734 53.6464 2.07472 53.4161 2.06192 52.9044C2.06192 52.3926 2.39455 52.1496 2.89348 52.1496C4.1728 52.1496 5.45213 52.1496 6.70586 52.1496C6.83379 51.9321 6.65469 51.8169 6.59072 51.6634C5.6952 49.527 7.02569 47.173 9.32847 47.0067C11.6824 46.8404 14.0492 46.8532 16.4031 46.7892C17.2091 46.7636 18.0151 46.7508 18.8338 46.738C19.1409 46.738 19.2688 46.6613 19.2816 46.3031C19.3455 44.5376 19.3583 44.5632 17.5929 44.8063C12.8466 45.4715 8.08753 46.1112 3.32845 46.7636C3.17493 46.7892 3.03421 46.802 2.88069 46.802C2.43293 46.8276 2.12589 46.6357 2.04913 46.1879C1.97237 45.7146 2.21544 45.3947 2.68879 45.318C3.73784 45.1517 4.79967 45.011 5.84871 44.8702C12.6931 43.9363 19.5374 43.0408 26.4586 42.0045C26.0236 41.6591 25.7294 41.3009 25.1153 41.544C24.3605 41.8382 23.6952 41.5184 23.094 41.0706C22.6974 40.7764 22.4159 40.6741 21.9937 41.0962C21.3797 41.6975 20.5609 41.8894 19.691 41.8638C14.9447 41.7231 10.224 41.3137 5.4905 41.0067C3.94253 40.9171 2.58645 39.7146 2.17706 38.1666C1.76768 36.6058 2.34338 34.9939 3.71225 34.0088C5.75916 32.5248 7.80607 31.0408 9.85299 29.5568C11.0555 28.6868 12.2965 27.8425 13.4607 26.9214C14.6376 25.9875 15.9298 25.5269 17.4266 25.6548C17.7848 25.6804 18.143 25.6804 18.5012 25.6932C18.5396 25.7828 18.5907 25.8083 18.6291 25.6932C18.6931 25.4246 18.45 25.335 18.3221 25.1815C17.6441 24.3243 17.1579 23.3904 17.0811 22.2902C17.2603 22.1751 17.2219 22.0855 17.0428 22.0216C16.9532 20.9597 16.9788 19.8979 17.03 18.8361C17.2858 18.7337 17.273 18.6058 17.0811 18.4395C17.1707 16.4437 17.2858 14.448 17.3498 12.4522C17.3754 11.7358 17.6952 11.3009 18.3093 11.0322C19.1025 10.6868 19.934 10.5588 20.7912 10.4821C22.659 10.3286 24.5268 10.3158 26.369 10.7891C27.6739 11.1345 27.9682 11.4672 28.0321 12.8105C28.1601 15.4203 28.2368 18.0301 28.3648 20.6527C28.4543 22.5077 28.0833 24.1964 26.6505 25.6165C27.0982 25.6548 27.4436 25.6676 27.7891 25.706C30.7443 26.0386 33.0087 28.4182 33.0855 31.3862C33.1494 33.7018 33.0982 36.0173 33.111 38.3457C33.111 38.8446 32.8936 39.2028 32.3818 39.2156C31.8317 39.2284 31.6014 38.8574 31.6014 38.3329C31.6014 35.9278 31.6014 33.5227 31.5886 31.1175C31.6142 31.0792 31.6398 31.0536 31.6654 31.0152C31.6398 31.0024 31.6014 30.9896 31.5759 30.9768C30.9234 28.0344 28.7486 26.9214 25.8829 27.1516C25.6398 27.1644 25.563 27.3179 25.4607 27.4843C24.7827 28.6101 24.1046 29.7231 23.4266 30.8489C23.1579 30.9512 23.2091 31.0919 23.4138 31.2199ZM42.8851 50.0899C43.7294 50.0771 44.3946 49.5909 45.1622 49.3351C44.5738 49.0792 44.0876 48.7466 43.5887 48.4267C43.3584 48.9641 43.1281 49.4886 42.8978 50.0259C42.885 50.0387 42.8978 50.0643 42.8978 50.0899C42.885 50.1154 42.8595 50.1538 42.8467 50.1794C42.8723 50.1794 42.885 50.1794 42.9106 50.1794C42.8978 50.1538 42.8851 50.1282 42.8851 50.0899ZM35.3243 52.0344C35.3243 52.0728 35.3243 52.0984 35.3371 52.1368C35.836 52.1368 36.3349 52.1624 36.8339 52.1368C38.9192 51.9833 40.5951 51.1133 41.6185 49.2199C42.5652 47.4672 42.1686 45.8553 40.5567 44.6911C39.7379 44.1026 38.804 43.7316 37.8445 43.4758C35.8232 42.9385 33.7763 42.9512 31.7038 43.0664C28.1729 43.2583 24.6931 43.8212 21.2006 44.3457C20.9703 44.3841 20.804 44.3969 20.8168 44.7039C20.8424 45.254 20.8296 45.8041 20.8168 46.367C20.8168 46.6229 20.9063 46.6997 21.1494 46.6869C22.4159 46.6229 23.6952 46.6997 24.9746 46.495C27.6355 46.0728 30.3093 45.6634 32.9703 45.2668C33.7123 45.1517 34.0961 45.3564 34.1601 45.8553C34.224 46.3542 33.917 46.6485 33.1622 46.7636C32.0876 46.9299 31.0257 47.0962 29.9511 47.2498C27.9298 47.5312 25.934 48.0302 23.8999 48.1069C19.2304 48.2732 14.5481 48.3628 9.86578 48.4779C8.67601 48.5035 7.84445 49.2839 7.85725 50.3329C7.87004 51.3948 8.71439 52.1496 9.89137 52.1496C14.6121 52.1496 19.3328 52.1496 24.0534 52.1496C24.3477 52.1496 24.6419 52.124 24.9362 52.0728C29.0812 51.4587 33.2134 50.8319 37.3584 50.1922C37.8829 50.1154 38.2539 50.2434 38.3946 50.7679C38.5226 51.2157 38.2027 51.5739 37.5887 51.6762C36.8211 51.8041 36.0663 51.9193 35.3243 52.0344ZM48.1814 39.3308C46.3008 39.4203 44.7912 40.1879 43.7678 41.7615C42.0407 44.3841 43.4352 47.5568 46.5183 48.0813C48.4501 48.4139 50.1004 47.7871 51.3797 46.3287C52.5695 44.9854 52.9789 43.4118 52.1985 41.7231C51.4181 40.0216 49.9469 39.3819 48.1814 39.3308ZM26.7144 15.1644C26.6505 15.1644 26.5993 15.1644 26.5353 15.1644C26.5353 14.3968 26.5225 13.6292 26.5481 12.8744C26.5609 12.5034 26.4074 12.3371 26.062 12.2603C23.8104 11.7614 21.5588 11.7486 19.3072 12.2731C19.0257 12.3371 18.885 12.465 18.8722 12.7849C18.821 14.3073 18.7571 15.8424 18.6419 17.3648C18.6163 17.8254 18.821 17.9661 19.192 18.0429C21.5844 18.5418 23.9639 18.4906 26.3306 17.9149C26.6633 17.8382 26.7528 17.6719 26.74 17.3265C26.6888 16.61 26.7144 15.8808 26.7144 15.1644ZM18.6291 22.4821C19.2688 24.657 20.9703 25.8083 23.1579 25.6165C24.8978 25.4629 26.4842 24.0685 26.6633 22.4949C25.3328 22.7124 24.0151 23.0962 22.7102 23.0962C21.3797 23.0962 20.0364 22.7124 18.6291 22.4821ZM19.2176 36.8233C18.8722 36.8105 18.6803 36.8233 18.4884 36.7849C18.0023 36.6698 17.8871 36.8873 17.8487 37.335C17.7848 38.205 17.6568 39.0621 17.5545 39.9321C17.5289 40.1495 17.5289 40.2903 17.8104 40.3031C18.5524 40.3158 19.2944 40.4182 20.0364 40.3542C20.6505 40.3158 21.2134 40.0856 21.418 39.3436C21.5716 38.7935 22.0577 38.6527 22.5822 38.9598C23.0812 39.254 23.5417 39.5738 24.0279 39.8809C24.3093 40.06 24.6291 40.367 24.9106 39.9448C25.2048 39.5099 24.7699 39.3691 24.4884 39.2028C23.6569 38.6911 22.7997 38.2178 21.9809 37.6932C21.0982 37.092 20.1515 36.721 19.2176 36.8233ZM26.804 19.3606C24.3349 19.9491 21.8786 20.0642 19.3967 19.6164C18.5012 19.4501 18.5012 19.4373 18.514 20.3968C18.514 20.6271 18.3861 20.9341 18.7954 20.9853C20.6121 21.19 22.3903 21.8936 24.2581 21.3819C24.6675 21.2668 25.0897 21.2156 25.5119 21.1516C26.8935 20.9341 26.8935 20.9341 26.8424 19.5525C26.8424 19.5013 26.8296 19.4629 26.804 19.3606ZM22.6974 29.0962C23.1195 28.3926 23.5033 27.7657 23.9255 27.0493C23.0556 27.1772 22.288 27.1516 21.4436 27.0621C21.8786 27.7529 22.2624 28.3798 22.6974 29.0962Z" stroke="#1C468C" stroke-width="0.2" mask="url(#path-1-outside-1_167_404)"/>
<path d="M57.5596 1.9502C57.6962 1.95353 57.8155 1.97973 57.917 2.0332C58.0189 2.08693 58.1005 2.16722 58.1631 2.27441C58.2868 2.48644 58.3379 2.80493 58.3379 3.24121V3.24316C58.3124 3.88153 58.3115 4.53294 58.3115 5.19824C58.3115 5.96456 58.3243 6.73397 58.3115 7.50195V7.50293C58.2723 8.69219 57.4077 9.54732 56.291 9.53418C55.2327 9.52178 54.4293 8.76983 54.3008 7.69629L54.2842 7.47754C54.2745 7.22708 54.2681 7.04322 54.248 6.90625C54.2279 6.76925 54.1956 6.68932 54.1445 6.63867C54.0935 6.58829 54.0148 6.55817 53.8809 6.54297C53.7471 6.52778 53.5683 6.52832 53.3242 6.52832H52.1719C51.5567 6.51734 51.0194 6.69729 50.5674 7.08691L50.3789 7.26758C49.919 7.74022 49.4693 8.21486 48.9688 8.66406V8.66504C48.8167 8.79812 48.7547 8.8941 48.752 8.98633C48.7493 9.08028 48.807 9.18914 48.9473 9.34863C50.5117 11.1311 51.7322 13.1213 52.3359 15.4463C52.572 16.3569 52.6909 17.2791 52.6133 18.2207L52.5674 18.626C52.3997 19.7481 51.96 20.7178 51.1582 21.5195C50.4621 22.2156 49.7315 22.8885 49.0635 23.6104L48.7812 23.9229C47.1551 25.7554 45.1014 26.193 42.8232 25.7168C39.2143 24.959 36.4288 22.878 34.0957 20.1348C32.3135 18.0447 31.0027 15.6946 30.707 12.8799C30.5139 11.0131 30.9392 9.35807 32.3604 8.02734L32.9414 7.47852C33.519 6.92612 34.0817 6.36339 34.6084 5.7793L34.9111 5.46191C36.448 3.95416 38.3377 3.65084 40.4121 4.04883C43.0073 4.53707 45.1898 5.83481 47.1387 7.55273C47.3239 7.71241 47.4547 7.77977 47.5645 7.77441C47.6712 7.76918 47.7774 7.694 47.9102 7.51074L47.9111 7.50879L48.0908 7.3291C49.5212 5.44846 51.4063 4.62188 53.7656 4.95703C54.0296 4.99474 54.1693 4.95075 54.2432 4.86133C54.3203 4.76789 54.3423 4.60786 54.3232 4.37207L54.3047 4.05176C54.2956 3.73209 54.3096 3.41086 54.3096 3.08789C54.3096 2.71307 54.3742 2.42555 54.5107 2.23242C54.65 2.03573 54.8595 1.94346 55.1289 1.9502L55.2217 1.95703C55.4329 1.98165 55.5999 2.07304 55.7158 2.23926C55.8457 2.42588 55.9072 2.70051 55.9072 3.0625C55.9072 4.34219 55.8944 5.62019 55.9199 6.88574L55.915 7.05078C55.9108 7.10799 55.9046 7.16679 55.8994 7.22461C55.8888 7.34296 55.8812 7.45917 55.8926 7.56152C55.9039 7.66343 55.9332 7.74559 55.9922 7.80273C56.0508 7.85938 56.1464 7.89941 56.3047 7.89941H56.3057C56.4769 7.90244 56.5812 7.86267 56.6455 7.80371C56.7101 7.74448 56.743 7.65826 56.7559 7.55176C56.7687 7.44494 56.761 7.32352 56.75 7.2002C56.7392 7.07919 56.7243 6.95384 56.7275 6.84766L56.7402 5.9375C56.7474 5.02707 56.7402 4.11834 56.7402 3.21582C56.7402 2.77879 56.798 2.45925 56.9307 2.25C57.0669 2.03523 57.2777 1.94348 57.5596 1.9502ZM35.9492 8.47266C34.7695 8.45374 33.8401 8.78627 33.2061 9.41406C32.5719 10.042 32.2266 10.9717 32.2266 12.1582C32.2266 12.6915 32.2905 13.2115 32.4424 13.7178C33.8067 18.3459 36.8531 21.4828 41.1406 23.5117C42.2215 24.0203 43.3783 24.2871 44.585 24.249C45.5857 24.2236 46.3952 23.9132 46.9746 23.3652C47.5539 22.8172 47.9079 22.0267 47.9902 21.0322C48.0663 20.1188 47.9394 19.2179 47.6348 18.3545L47.4883 17.9609C45.9858 14.0648 43.2905 11.2632 39.5674 9.42871L39.1914 9.24805C38.1741 8.76482 37.0933 8.49808 35.9492 8.47266ZM42.0195 6.20312C40.9384 5.70707 39.7821 5.44147 38.5762 5.50488H38.5752C37.4782 5.55424 36.5436 5.92677 35.8438 6.86523C39.0636 6.92135 42.4905 8.80174 45.1191 11.4463C47.7518 14.0949 49.5921 17.519 49.623 20.6621C49.6501 20.6491 49.6732 20.6386 49.6924 20.6299C49.7284 20.6135 49.746 20.6037 49.7578 20.5918L49.7598 20.5898C51.1599 19.3282 51.2517 17.7136 50.7939 16.0605C49.468 11.3692 46.3709 8.21936 42.0195 6.20312Z" fill="#1C468C" stroke="#1C468C" stroke-width="0.1"/>
<path d="M55.9033 50.2258C56.1615 50.1275 56.4554 49.9605 56.7988 50.1116H56.7979C56.9438 50.1713 57.0666 50.252 57.1562 50.3606C57.2464 50.4698 57.3009 50.605 57.3145 50.7678C57.3286 50.9525 57.2514 51.0838 57.1592 51.2043C57.0653 51.327 56.9608 51.434 56.8896 51.5862L56.8799 51.6067L56.8584 51.6135C56.5974 51.69 55.364 52.11 54.2129 52.5549C53.6372 52.7775 53.0832 53.0058 52.6826 53.1995C52.482 53.2965 52.3218 53.3843 52.2168 53.4573C52.1639 53.494 52.1278 53.5252 52.1074 53.55C52.0851 53.5773 52.0921 53.582 52.0898 53.5764C52.3133 54.0936 52.5882 54.6715 52.8604 55.2522C53.1323 55.8324 53.4016 56.4157 53.6133 56.9417H53.6123C53.73 57.2295 53.7596 57.4936 53.6982 57.7122C53.6362 57.9326 53.4836 58.1015 53.2529 58.1965C53.0175 58.2907 52.7958 58.2852 52.5996 58.1741C52.4059 58.0642 52.2434 57.8551 52.1133 57.5559V57.5549C51.6786 56.5194 51.23 55.482 50.833 54.4319C50.7432 54.1945 50.6619 54.0552 50.5469 53.9915C50.4623 53.9446 50.351 53.934 50.1855 53.9719L50.001 54.0266C48.114 54.7046 46.2238 55.3734 44.332 56.0403L38.6533 58.0432C38.2786 58.1724 37.9142 58.2512 37.5234 58.2512H2.87988C2.63645 58.2512 2.42566 58.1951 2.27148 58.0706C2.11605 57.9448 2.02415 57.7544 2.01074 57.5002V57.4993C2.00412 57.261 2.06027 57.0544 2.19141 56.9075C2.32322 56.7598 2.52415 56.68 2.79004 56.6799H2.81738L2.83203 56.7034C2.87455 56.7702 2.90872 56.7837 2.92773 56.7825C2.94815 56.7811 2.98427 56.7607 3.02734 56.6809L3.04102 56.6555L3.06934 56.6545C3.32139 56.6419 3.5818 56.6155 3.82617 56.6155C14.7772 56.6155 25.7286 56.6164 36.6924 56.6292C37.4417 56.6291 38.1399 56.5148 38.8506 56.261C43.0718 54.7644 51.6681 51.7101 55.9033 50.2258Z" fill="#1C468C" stroke="#1C468C" stroke-width="0.1"/>
<path d="M32.0312 41.5071C33.1072 41.3918 34.1736 41.3401 35.2412 41.4944L35.2432 41.593C34.1782 41.7855 33.1086 41.8638 32.0244 41.6057L32.0312 41.5071Z" fill="#1C468C" stroke="#1C468C" stroke-width="0.1"/>
<path d="M17.126 18.3887C17.1759 18.4319 17.2163 18.4749 17.2432 18.5176C17.2701 18.5605 17.2849 18.6071 17.2803 18.6543C17.2707 18.75 17.1844 18.8174 17.0615 18.8691L17.0137 18.8896L16.9951 18.8408C16.9376 18.6827 16.9683 18.5389 17.0508 18.4014L17.0811 18.3496L17.126 18.3887Z" fill="#1C468C" stroke="#1C468C" stroke-width="0.1"/>
<path d="M17.0586 21.9619C17.1058 21.9788 17.1473 21.9983 17.1787 22.0215C17.2097 22.0444 17.2358 22.0745 17.2441 22.1133C17.2528 22.1537 17.2402 22.1923 17.2158 22.2256C17.1919 22.2581 17.1547 22.289 17.1074 22.3193L17.0674 22.3457L17.04 22.3066C17.0051 22.2577 16.9816 22.2086 16.9736 22.1553C16.9657 22.1017 16.9738 22.0481 16.9951 21.9912L17.0127 21.9453L17.0586 21.9619Z" fill="#1C468C" stroke="#1C468C" stroke-width="0.1"/>
<path d="M23.4619 33.3428C23.515 33.5287 23.5292 33.7197 23.4473 33.9248L23.4219 33.9873L23.3701 33.9453C23.2444 33.8461 23.1708 33.7403 23.1748 33.625C23.1788 33.5105 23.2585 33.4087 23.3838 33.3164L23.4414 33.2734L23.4619 33.3428Z" fill="#1C468C" stroke="#1C468C" stroke-width="0.1"/>
<path d="M23.4766 30.8359C23.4766 30.9013 23.4729 30.9665 23.4697 31.0303C23.4665 31.0944 23.4639 31.1572 23.4639 31.2197V31.3145L23.3857 31.2607C23.3329 31.2244 23.2871 31.1874 23.2539 31.1494C23.2211 31.1119 23.196 31.0695 23.1924 31.0225C23.1887 30.973 23.2088 30.9277 23.2461 30.8896C23.2823 30.8527 23.3365 30.82 23.4062 30.79L23.4766 30.7598V30.8359Z" fill="#1C468C" stroke="#1C468C" stroke-width="0.1"/>
<path d="M3.15332 56.6543L3.11719 56.7266C3.09348 56.774 3.06729 56.813 3.03809 56.8408C3.00848 56.8689 2.97233 56.8887 2.93164 56.8887C2.89103 56.8886 2.85574 56.8689 2.82617 56.8408C2.79681 56.813 2.76991 56.7742 2.74609 56.7266L2.70996 56.6543H3.15332Z" fill="#1C468C" stroke="#1C468C" stroke-width="0.1"/>
<path d="M31.5977 30.9194C31.6082 30.9247 31.6221 30.9304 31.6387 30.937C31.6541 30.9432 31.6725 30.951 31.6875 30.9585L31.7373 30.9829L31.7061 31.0308C31.692 31.0518 31.6777 31.0697 31.665 31.0854C31.6523 31.1014 31.6412 31.1163 31.6299 31.1333L31.5381 31.27V31.105C31.5381 31.0538 31.5375 31.0206 31.5264 30.9761L31.5 30.8706L31.5977 30.9194Z" fill="#1C468C" stroke="#1C468C" stroke-width="0.1"/>
<path d="M18.6978 25.6306L18.6763 25.696C18.6661 25.7264 18.6545 25.7535 18.6401 25.7732C18.626 25.7925 18.6006 25.815 18.5649 25.8123C18.5337 25.8097 18.512 25.7876 18.4985 25.7712C18.4836 25.7531 18.469 25.7297 18.4556 25.7029L18.4194 25.6306H18.6978Z" fill="#1C468C" stroke="#1C468C" stroke-width="0.1"/>
<path d="M53.376 46.209C53.3943 46.2334 53.4102 46.2517 53.4248 46.2695C53.4393 46.2873 53.4535 46.3058 53.4678 46.3271L53.5195 46.4043H53.4258C53.4039 46.4043 53.3815 46.4069 53.3555 46.4102C53.3304 46.4133 53.3017 46.417 53.2725 46.417H53.1787L53.2305 46.3398C53.2411 46.3239 53.2496 46.307 53.2588 46.2871C53.2677 46.2678 53.2788 46.2433 53.292 46.2168L53.3281 46.1445L53.376 46.209Z" fill="#1C468C" stroke="#1C468C" stroke-width="0.1"/>
<path d="M42.8813 50.083L42.8716 50.0898H42.8472C42.8472 50.0879 42.8473 50.0822 42.8501 50.0752C42.8509 50.0731 42.8537 50.0716 42.855 50.0693L42.853 50.0674C42.8477 50.0781 42.8386 50.0928 42.8286 50.1094C42.8194 50.1247 42.8086 50.1425 42.8013 50.1572L42.7651 50.2295H42.9907L42.9546 50.1572C42.9518 50.1516 42.9503 50.1426 42.9468 50.125C42.946 50.1211 42.944 50.1164 42.9429 50.1113C42.9465 50.1016 42.9478 50.0932 42.9478 50.0898L42.9351 50.0869C42.933 50.0806 42.9322 50.0735 42.9292 50.0674L42.9038 50.0801L42.896 50.0781M42.8813 50.083L42.8882 50.0859M42.8813 50.083L42.8882 50.0859M42.8813 50.083L42.8901 50.0771M42.8882 50.0859L42.896 50.0781M42.8882 50.0859L42.896 50.0781M42.896 50.0781L42.8901 50.0771M42.8901 50.0771L42.9165 50.0576L42.9194 50.0547V50.0537H42.9185L42.9175 50.0527C42.9169 50.0523 42.9155 50.0508 42.9136 50.0498C42.9118 50.0489 42.9076 50.0469 42.9019 50.0459C42.8959 50.0449 42.8843 50.0449 42.8726 50.0508C42.8641 50.0551 42.8598 50.0623 42.856 50.0684L42.8901 50.0771Z" fill="#1C468C" stroke="#1C468C" stroke-width="0.1"/>
<path d="M22.667 12.876C22.9234 12.8557 23.1416 12.9367 23.291 13.1104C23.4391 13.2826 23.5138 13.5394 23.501 13.8604C23.4946 14.0888 23.5318 14.2131 23.6055 14.2803C23.6614 14.3311 23.7471 14.3576 23.8779 14.3623L24.0244 14.3594C24.2806 14.3335 24.5086 14.376 24.6797 14.5039C24.8521 14.6329 24.9589 14.8434 24.9854 15.1348L24.9863 15.1426L24.9355 15.1387L24.9854 15.1426C24.9655 15.4068 24.8793 15.6159 24.7266 15.7549C24.5734 15.8941 24.3604 15.9566 24.1016 15.9434C23.9906 15.937 23.8931 15.9367 23.8105 15.9473C23.728 15.9579 23.6636 15.9797 23.6152 16.0146C23.5229 16.0814 23.4696 16.2131 23.501 16.4893V16.4902C23.5274 16.7549 23.4754 16.9931 23.3389 17.166C23.2013 17.34 22.9836 17.4404 22.6963 17.4404C22.4096 17.4403 22.1951 17.3429 22.0605 17.1699C21.9272 16.9983 21.8789 16.7603 21.9053 16.4902V16.4893C21.9306 16.2541 21.9047 16.1122 21.8301 16.0322C21.7562 15.9532 21.6183 15.917 21.3711 15.9424L21.3721 15.9434C21.1015 15.9763 20.8667 15.9308 20.6934 15.8008C20.5194 15.6703 20.4156 15.4606 20.3955 15.1816L20.3926 15.0908C20.3984 14.8832 20.4863 14.7031 20.6416 14.5732C20.8182 14.4258 21.0777 14.3463 21.3936 14.3594L21.5439 14.3574C21.6783 14.3483 21.7662 14.3178 21.8213 14.2646C21.8751 14.2124 21.9061 14.1302 21.9102 13.999L21.9053 13.8516C21.8791 13.589 21.9173 13.3546 22.042 13.1797C22.1678 13.0033 22.375 12.897 22.667 12.877V12.876Z" fill="#1C468C" stroke="#1C468C" stroke-width="0.1"/>
<path d="M41.1396 11.4517C42.0069 11.5279 42.9457 12.0742 43.6816 12.8071C44.4667 13.5889 45.0332 14.596 45.0332 15.4976C45.0331 16.0408 44.8332 16.4931 44.4951 16.7915C44.1569 17.09 43.6845 17.2307 43.1475 17.1587C42.2886 17.0481 41.3862 16.5133 40.6729 15.7983C40.004 15.128 39.4949 14.2929 39.3428 13.4888L39.3174 13.3286C39.252 12.7858 39.3925 12.3105 39.6875 11.9722C39.9828 11.6337 40.4293 11.4363 40.9668 11.4429L41.1396 11.4517ZM41.1279 13.0649C40.9883 13.0523 40.9528 13.0819 40.9414 13.104C40.9339 13.1188 40.9306 13.1416 40.9326 13.1763C40.9346 13.2108 40.9416 13.2514 40.9512 13.2993V13.3003C40.9878 13.4926 41.0943 13.7192 41.249 13.9546C41.4034 14.1893 41.6042 14.4299 41.8252 14.6509C42.0462 14.8719 42.2867 15.0727 42.5215 15.2271C42.698 15.3431 42.8696 15.4322 43.0254 15.4849L43.1758 15.5249L43.1797 15.5259C43.2264 15.5383 43.2681 15.547 43.3037 15.5493C43.3399 15.5516 43.3647 15.5464 43.3809 15.5376C43.3948 15.53 43.4078 15.5168 43.415 15.4878C43.4228 15.4568 43.4233 15.4095 43.4111 15.3394V15.3345C43.3992 15.1587 43.3017 14.9322 43.1436 14.687C42.9862 14.4432 42.7721 14.1859 42.5352 13.9497C42.2981 13.7134 42.0383 13.4992 41.791 13.3403C41.5424 13.1807 41.3107 13.0799 41.1279 13.0649Z" fill="#1C468C" stroke="#1C468C" stroke-width="0.1"/>
<path d="M33.3237 10.6748C33.7387 10.3066 34.3653 10.1747 35.0688 10.3701C35.8368 10.585 36.6223 11.1878 37.229 11.9297C37.7978 12.6253 38.2147 13.4504 38.313 14.2051L38.3286 14.3555C38.3612 14.9035 38.2112 15.3713 37.9194 15.7012C37.6275 16.0312 37.198 16.2182 36.6802 16.2119V16.2129C36.4225 16.2129 36.1577 16.1869 35.9175 16.0674C34.2797 15.3452 33.2059 14.1304 32.8569 12.3604L32.8188 12.0967C32.7656 11.4962 32.9603 10.9976 33.3237 10.6748ZM34.5728 11.9268C34.5045 11.9246 34.464 11.9343 34.4409 11.9473C34.4198 11.9591 34.4094 11.9752 34.4048 11.9971C34.3997 12.0215 34.4023 12.0534 34.4097 12.0918C34.4171 12.1302 34.4279 12.1686 34.438 12.209L34.4966 12.3994C34.8111 13.337 35.4421 14.0331 36.3198 14.5195C36.3774 14.5515 36.4457 14.5863 36.5112 14.6006C36.5756 14.6146 36.6294 14.6074 36.6704 14.5664C36.7127 14.524 36.7218 14.4712 36.7134 14.4062C36.7044 14.3383 36.6785 14.2717 36.6577 14.1963L36.5933 14.0205C36.254 13.1587 35.6812 12.4971 34.8521 12.0352H34.8511C34.8107 12.0121 34.7632 11.994 34.7124 11.9766C34.6669 11.9609 34.6172 11.945 34.5728 11.9268Z" fill="#1C468C" stroke="#1C468C" stroke-width="0.1"/>
<path d="M42.1084 18.1721L42.2598 18.1887C43.019 18.2919 43.8405 18.7068 44.5332 19.2727C45.272 19.8763 45.8715 20.6579 46.0928 21.4319V21.4329C46.2882 22.1303 46.1564 22.7534 45.7881 23.1682C45.4194 23.5833 44.8212 23.7818 44.1035 23.6448V23.6438C42.3845 23.3077 41.1951 22.2603 40.4473 20.7004V20.6995C40.3159 20.4234 40.2637 20.1216 40.2637 19.885C40.2573 19.3358 40.4474 18.887 40.7773 18.5852C41.1073 18.2835 41.5724 18.1329 42.1084 18.1721ZM42.1025 19.7815C42.0378 19.7784 41.9888 19.7828 41.9541 19.7932C41.9204 19.8033 41.9034 19.8184 41.8945 19.8352C41.8851 19.8534 41.8806 19.8828 41.8896 19.9309C41.8987 19.9792 41.9205 20.0413 41.958 20.1194C42.4506 21.104 43.2321 21.7469 44.293 22.05L44.3701 22.0676C44.3937 22.0717 44.4154 22.0742 44.4346 22.0745C44.4725 22.0749 44.4967 22.0677 44.5117 22.0569C44.5253 22.0469 44.5382 22.0289 44.543 21.9934C44.5478 21.9565 44.5438 21.903 44.5254 21.8293L44.5244 21.8274C44.4883 21.6499 44.3703 21.4339 44.1953 21.2083C44.0212 20.9838 43.794 20.7533 43.5469 20.5442C43.2997 20.3351 43.0332 20.1483 42.7803 20.012C42.5262 19.8751 42.2898 19.7906 42.1025 19.7815Z" fill="#1C468C" stroke="#1C468C" stroke-width="0.1"/>
</svg>
