<svg width="60" height="60" viewBox="0 0 60 60" fill="none" xmlns="http://www.w3.org/2000/svg">
<mask id="path-1-outside-1_167_277" maskUnits="userSpaceOnUse" x="0.108887" y="0" width="59" height="60" fill="black">
<rect fill="white" x="0.108887" width="59" height="60"/>
<path d="M24.3239 59.1094C17.8175 59.1094 11.2946 59.1094 4.78821 59.1094C2.52653 59.1094 1.37931 58.2408 1.24819 55.9791C1.06791 52.8652 1.05153 49.7186 1.26458 46.6047C1.46125 43.9169 2.98543 41.9502 5.13238 40.4424C7.36129 38.869 9.90158 37.9677 12.491 37.181C14.0972 36.6893 15.7033 36.2468 17.3258 35.8043C17.67 35.706 17.883 35.5421 18.0305 35.2143C18.2764 34.6571 18.7352 34.1326 18.7844 33.559C18.8336 32.9362 18.0469 32.6904 17.67 32.2315C16.5719 30.8548 15.8836 29.3143 15.5722 27.6098C15.5066 27.2329 15.3755 27.0198 14.9986 26.8723C14.2119 26.5773 13.6055 26.0201 13.1138 25.3481C12.1305 24.037 11.4585 22.5784 11.4094 20.9067C11.3766 19.6284 11.9994 18.7761 13.1958 18.3664C13.5072 18.2517 13.4744 18.137 13.4088 17.8911C13.081 16.6947 12.7205 15.482 12.6058 14.2528C12.3272 11.3847 12.7697 8.68053 14.5724 6.30413C16.6211 3.58355 19.2433 1.7316 22.6522 1.19076C26.815 0.518813 30.4698 1.61688 33.5181 4.56689C35.157 6.15663 35.8945 8.15608 35.9929 10.4014C36.0912 12.7942 35.9601 15.187 35.6487 17.5634C35.5995 17.9731 35.5831 18.2353 36.1567 18.3336C37.1892 18.5139 37.894 19.612 37.9431 20.8412C37.9595 23.0537 36.1567 26.0037 34.1081 26.9215C33.8623 27.0362 33.7803 27.1673 33.7312 27.4131C33.3378 29.6912 32.4201 31.6907 30.6009 33.1985C30.355 33.3951 30.3714 33.5754 30.4534 33.8376C30.65 34.3785 30.8631 34.9029 31.027 35.4437C31.1253 35.7388 31.3056 35.8535 31.5842 35.9354C31.8956 36.0338 31.9776 35.7879 32.1087 35.624C35.8617 30.904 40.7621 28.8718 46.6785 30.0026C52.5621 31.1334 56.4299 34.7882 58.1016 40.5571C60.5927 49.1777 54.4632 58.0933 45.5149 59.0275C44.8593 59.0931 44.2037 59.1258 43.5482 59.1258C37.1401 59.1094 30.732 59.1094 24.3239 59.1094ZM29.2078 42.8352C29.0767 42.9007 28.9948 42.9171 28.9292 42.9663C24.3239 45.5721 18.2436 43.5563 16.49 38.1971C16.3752 37.8529 16.2277 37.8857 15.9491 37.9677C14.7363 38.3282 13.5072 38.6396 12.3108 39.0329C10.0655 39.7541 7.86935 40.5571 5.95183 41.983C3.9196 43.4907 2.82154 45.4738 2.88709 48.0633C2.93626 50.4561 2.90348 52.8489 2.88709 55.2416C2.88709 55.7661 2.96904 56.2578 3.18209 56.733C3.37876 57.2083 3.70654 57.4378 4.26377 57.4378C14.9658 57.4214 25.6842 57.4214 36.3862 57.4214C36.5173 57.4214 36.6976 57.5197 36.7959 57.3722C31.4039 54.0125 28.88 49.2105 29.2078 42.8352ZM30.9123 44.4085C30.8795 51.4722 36.6976 57.3394 43.7776 57.3722C51.0379 57.4214 56.9216 51.6033 56.938 44.3594C56.9544 37.3121 51.1035 31.4284 44.0562 31.3957C36.7795 31.3629 30.945 37.1482 30.9123 44.4085ZM25.9956 14.7608C25.9464 14.8428 25.9136 14.9083 25.8645 14.9903C26.2414 15.3181 26.6675 15.5967 27.0117 15.9572C27.5525 16.5145 27.3395 17.2847 26.602 17.4159C23.9142 17.8748 21.4558 17.2684 20.1119 14.4822C19.7841 13.8103 19.5219 13.0892 19.2925 12.3844C19.1286 11.8764 18.8827 11.8272 18.4239 11.9747C17.2602 12.3681 16.7686 13.3186 16.4244 14.3675C15.9163 15.9081 15.818 17.5306 15.8508 19.1531C15.8672 19.6775 15.7852 20.1856 15.2608 20.4806C14.8019 20.7428 14.4577 20.4642 14.0972 20.1856C13.6547 19.8414 13.2941 19.9725 13.1138 20.497C13.0155 20.7756 13.0155 21.0706 13.0974 21.3492C13.376 22.5128 13.8513 23.5945 14.6216 24.5123C14.9658 24.922 15.3591 25.2826 15.9163 25.3809C16.9161 25.5776 16.9816 25.6431 17.0963 26.6756C17.5716 30.7893 20.2594 33.3132 24.3894 33.4115C26.5692 33.4607 28.585 32.9526 30.1092 31.2646C31.3548 29.9043 31.9284 28.2326 32.0923 26.4298C32.1414 25.8726 32.3545 25.4629 32.9445 25.4137C33.6492 25.3645 34.1245 24.9876 34.5506 24.4959C35.3701 23.5453 35.8454 22.4309 36.1076 21.2181C36.1404 21.0542 36.1404 20.8903 36.124 20.7264C36.0748 20.4314 36.0092 20.0873 35.6815 19.9725C35.3209 19.8414 35.1242 20.0873 34.9276 20.3495C34.7145 20.6445 34.4195 20.7592 34.059 20.6937C33.682 20.6117 33.4689 20.3495 33.387 19.9725C33.3542 19.8087 33.3542 19.6448 33.3378 19.4809C33.0756 17.3339 32.7478 15.2033 31.9776 13.1547C31.8792 12.8925 31.83 12.5811 31.535 12.3681C30.2895 14.515 28.3228 15.0558 25.9956 14.7608ZM24.3731 15.7606C24.16 15.4328 23.9961 15.187 23.8486 14.9411C23.5864 14.4822 23.4225 14.007 23.7339 13.4989C24.0289 13.0072 24.5042 12.9417 25.0286 12.9744C25.7661 13.0236 26.5036 13.0892 27.2411 13.1056C28.4211 13.1383 29.3553 12.6631 29.9945 11.6797C30.2731 11.2536 30.5025 10.7947 30.7484 10.3522C31.1581 9.64748 31.8137 9.6147 32.3217 10.2539C33.0264 11.1717 33.5345 12.1878 33.8951 13.2858C33.9442 13.4333 33.9115 13.6628 34.2228 13.7283C34.2228 12.4992 34.2884 11.27 34.2065 10.0736C34.0753 8.1233 33.2395 6.51718 31.7317 5.25523C29.0111 2.97716 25.8808 2.23966 22.4392 2.96077C18.2272 3.82939 13.753 7.81191 14.2119 13.63C14.2447 14.0233 14.2611 14.4331 14.4741 14.8264C14.6872 14.22 14.8511 13.6464 15.0805 13.0892C15.5886 11.9092 16.3425 10.9094 17.588 10.4505C19.653 9.71304 20.3414 10.2867 20.9478 11.9092C21.21 12.6303 21.4394 13.3842 21.8164 14.0561C22.3736 15.0231 23.1603 15.6131 24.3731 15.7606ZM24.8811 42.3599C26.52 42.3599 28.1425 41.7207 29.4864 40.3932C29.7159 40.1638 29.8961 39.9016 30.0109 39.5902C30.2075 39.0329 30.4206 38.4921 30.6992 37.9513C30.8631 37.6235 30.8959 37.4596 30.4698 37.3776C29.9781 37.2793 29.7159 36.9351 29.5684 36.4763C29.3881 35.8699 29.1423 35.2799 28.9456 34.6899C28.8636 34.4276 28.7817 34.3457 28.4867 34.4604C25.8972 35.411 23.2914 35.411 20.7019 34.4276C20.4233 34.3129 20.325 34.3621 20.1939 34.6243C19.8989 35.2799 19.5547 35.9026 19.2597 36.5418C19.0958 36.886 18.8991 37.1482 18.5222 37.1974C18.0469 37.2793 18.0633 37.5088 18.1944 37.8857C19.1122 40.5243 21.7836 42.3763 24.8811 42.3599Z"/>
</mask>
<path d="M24.3239 59.1094C17.8175 59.1094 11.2946 59.1094 4.78821 59.1094C2.52653 59.1094 1.37931 58.2408 1.24819 55.9791C1.06791 52.8652 1.05153 49.7186 1.26458 46.6047C1.46125 43.9169 2.98543 41.9502 5.13238 40.4424C7.36129 38.869 9.90158 37.9677 12.491 37.181C14.0972 36.6893 15.7033 36.2468 17.3258 35.8043C17.67 35.706 17.883 35.5421 18.0305 35.2143C18.2764 34.6571 18.7352 34.1326 18.7844 33.559C18.8336 32.9362 18.0469 32.6904 17.67 32.2315C16.5719 30.8548 15.8836 29.3143 15.5722 27.6098C15.5066 27.2329 15.3755 27.0198 14.9986 26.8723C14.2119 26.5773 13.6055 26.0201 13.1138 25.3481C12.1305 24.037 11.4585 22.5784 11.4094 20.9067C11.3766 19.6284 11.9994 18.7761 13.1958 18.3664C13.5072 18.2517 13.4744 18.137 13.4088 17.8911C13.081 16.6947 12.7205 15.482 12.6058 14.2528C12.3272 11.3847 12.7697 8.68053 14.5724 6.30413C16.6211 3.58355 19.2433 1.7316 22.6522 1.19076C26.815 0.518813 30.4698 1.61688 33.5181 4.56689C35.157 6.15663 35.8945 8.15608 35.9929 10.4014C36.0912 12.7942 35.9601 15.187 35.6487 17.5634C35.5995 17.9731 35.5831 18.2353 36.1567 18.3336C37.1892 18.5139 37.894 19.612 37.9431 20.8412C37.9595 23.0537 36.1567 26.0037 34.1081 26.9215C33.8623 27.0362 33.7803 27.1673 33.7312 27.4131C33.3378 29.6912 32.4201 31.6907 30.6009 33.1985C30.355 33.3951 30.3714 33.5754 30.4534 33.8376C30.65 34.3785 30.8631 34.9029 31.027 35.4437C31.1253 35.7388 31.3056 35.8535 31.5842 35.9354C31.8956 36.0338 31.9776 35.7879 32.1087 35.624C35.8617 30.904 40.7621 28.8718 46.6785 30.0026C52.5621 31.1334 56.4299 34.7882 58.1016 40.5571C60.5927 49.1777 54.4632 58.0933 45.5149 59.0275C44.8593 59.0931 44.2037 59.1258 43.5482 59.1258C37.1401 59.1094 30.732 59.1094 24.3239 59.1094ZM29.2078 42.8352C29.0767 42.9007 28.9948 42.9171 28.9292 42.9663C24.3239 45.5721 18.2436 43.5563 16.49 38.1971C16.3752 37.8529 16.2277 37.8857 15.9491 37.9677C14.7363 38.3282 13.5072 38.6396 12.3108 39.0329C10.0655 39.7541 7.86935 40.5571 5.95183 41.983C3.9196 43.4907 2.82154 45.4738 2.88709 48.0633C2.93626 50.4561 2.90348 52.8489 2.88709 55.2416C2.88709 55.7661 2.96904 56.2578 3.18209 56.733C3.37876 57.2083 3.70654 57.4378 4.26377 57.4378C14.9658 57.4214 25.6842 57.4214 36.3862 57.4214C36.5173 57.4214 36.6976 57.5197 36.7959 57.3722C31.4039 54.0125 28.88 49.2105 29.2078 42.8352ZM30.9123 44.4085C30.8795 51.4722 36.6976 57.3394 43.7776 57.3722C51.0379 57.4214 56.9216 51.6033 56.938 44.3594C56.9544 37.3121 51.1035 31.4284 44.0562 31.3957C36.7795 31.3629 30.945 37.1482 30.9123 44.4085ZM25.9956 14.7608C25.9464 14.8428 25.9136 14.9083 25.8645 14.9903C26.2414 15.3181 26.6675 15.5967 27.0117 15.9572C27.5525 16.5145 27.3395 17.2847 26.602 17.4159C23.9142 17.8748 21.4558 17.2684 20.1119 14.4822C19.7841 13.8103 19.5219 13.0892 19.2925 12.3844C19.1286 11.8764 18.8827 11.8272 18.4239 11.9747C17.2602 12.3681 16.7686 13.3186 16.4244 14.3675C15.9163 15.9081 15.818 17.5306 15.8508 19.1531C15.8672 19.6775 15.7852 20.1856 15.2608 20.4806C14.8019 20.7428 14.4577 20.4642 14.0972 20.1856C13.6547 19.8414 13.2941 19.9725 13.1138 20.497C13.0155 20.7756 13.0155 21.0706 13.0974 21.3492C13.376 22.5128 13.8513 23.5945 14.6216 24.5123C14.9658 24.922 15.3591 25.2826 15.9163 25.3809C16.9161 25.5776 16.9816 25.6431 17.0963 26.6756C17.5716 30.7893 20.2594 33.3132 24.3894 33.4115C26.5692 33.4607 28.585 32.9526 30.1092 31.2646C31.3548 29.9043 31.9284 28.2326 32.0923 26.4298C32.1414 25.8726 32.3545 25.4629 32.9445 25.4137C33.6492 25.3645 34.1245 24.9876 34.5506 24.4959C35.3701 23.5453 35.8454 22.4309 36.1076 21.2181C36.1404 21.0542 36.1404 20.8903 36.124 20.7264C36.0748 20.4314 36.0092 20.0873 35.6815 19.9725C35.3209 19.8414 35.1242 20.0873 34.9276 20.3495C34.7145 20.6445 34.4195 20.7592 34.059 20.6937C33.682 20.6117 33.4689 20.3495 33.387 19.9725C33.3542 19.8087 33.3542 19.6448 33.3378 19.4809C33.0756 17.3339 32.7478 15.2033 31.9776 13.1547C31.8792 12.8925 31.83 12.5811 31.535 12.3681C30.2895 14.515 28.3228 15.0558 25.9956 14.7608ZM24.3731 15.7606C24.16 15.4328 23.9961 15.187 23.8486 14.9411C23.5864 14.4822 23.4225 14.007 23.7339 13.4989C24.0289 13.0072 24.5042 12.9417 25.0286 12.9744C25.7661 13.0236 26.5036 13.0892 27.2411 13.1056C28.4211 13.1383 29.3553 12.6631 29.9945 11.6797C30.2731 11.2536 30.5025 10.7947 30.7484 10.3522C31.1581 9.64748 31.8137 9.6147 32.3217 10.2539C33.0264 11.1717 33.5345 12.1878 33.8951 13.2858C33.9442 13.4333 33.9115 13.6628 34.2228 13.7283C34.2228 12.4992 34.2884 11.27 34.2065 10.0736C34.0753 8.1233 33.2395 6.51718 31.7317 5.25523C29.0111 2.97716 25.8808 2.23966 22.4392 2.96077C18.2272 3.82939 13.753 7.81191 14.2119 13.63C14.2447 14.0233 14.2611 14.4331 14.4741 14.8264C14.6872 14.22 14.8511 13.6464 15.0805 13.0892C15.5886 11.9092 16.3425 10.9094 17.588 10.4505C19.653 9.71304 20.3414 10.2867 20.9478 11.9092C21.21 12.6303 21.4394 13.3842 21.8164 14.0561C22.3736 15.0231 23.1603 15.6131 24.3731 15.7606ZM24.8811 42.3599C26.52 42.3599 28.1425 41.7207 29.4864 40.3932C29.7159 40.1638 29.8961 39.9016 30.0109 39.5902C30.2075 39.0329 30.4206 38.4921 30.6992 37.9513C30.8631 37.6235 30.8959 37.4596 30.4698 37.3776C29.9781 37.2793 29.7159 36.9351 29.5684 36.4763C29.3881 35.8699 29.1423 35.2799 28.9456 34.6899C28.8636 34.4276 28.7817 34.3457 28.4867 34.4604C25.8972 35.411 23.2914 35.411 20.7019 34.4276C20.4233 34.3129 20.325 34.3621 20.1939 34.6243C19.8989 35.2799 19.5547 35.9026 19.2597 36.5418C19.0958 36.886 18.8991 37.1482 18.5222 37.1974C18.0469 37.2793 18.0633 37.5088 18.1944 37.8857C19.1122 40.5243 21.7836 42.3763 24.8811 42.3599Z" fill="#1C468C"/>
<path d="M24.3239 59.1094C17.8175 59.1094 11.2946 59.1094 4.78821 59.1094C2.52653 59.1094 1.37931 58.2408 1.24819 55.9791C1.06791 52.8652 1.05153 49.7186 1.26458 46.6047C1.46125 43.9169 2.98543 41.9502 5.13238 40.4424C7.36129 38.869 9.90158 37.9677 12.491 37.181C14.0972 36.6893 15.7033 36.2468 17.3258 35.8043C17.67 35.706 17.883 35.5421 18.0305 35.2143C18.2764 34.6571 18.7352 34.1326 18.7844 33.559C18.8336 32.9362 18.0469 32.6904 17.67 32.2315C16.5719 30.8548 15.8836 29.3143 15.5722 27.6098C15.5066 27.2329 15.3755 27.0198 14.9986 26.8723C14.2119 26.5773 13.6055 26.0201 13.1138 25.3481C12.1305 24.037 11.4585 22.5784 11.4094 20.9067C11.3766 19.6284 11.9994 18.7761 13.1958 18.3664C13.5072 18.2517 13.4744 18.137 13.4088 17.8911C13.081 16.6947 12.7205 15.482 12.6058 14.2528C12.3272 11.3847 12.7697 8.68053 14.5724 6.30413C16.6211 3.58355 19.2433 1.7316 22.6522 1.19076C26.815 0.518813 30.4698 1.61688 33.5181 4.56689C35.157 6.15663 35.8945 8.15608 35.9929 10.4014C36.0912 12.7942 35.9601 15.187 35.6487 17.5634C35.5995 17.9731 35.5831 18.2353 36.1567 18.3336C37.1892 18.5139 37.894 19.612 37.9431 20.8412C37.9595 23.0537 36.1567 26.0037 34.1081 26.9215C33.8623 27.0362 33.7803 27.1673 33.7312 27.4131C33.3378 29.6912 32.4201 31.6907 30.6009 33.1985C30.355 33.3951 30.3714 33.5754 30.4534 33.8376C30.65 34.3785 30.8631 34.9029 31.027 35.4437C31.1253 35.7388 31.3056 35.8535 31.5842 35.9354C31.8956 36.0338 31.9776 35.7879 32.1087 35.624C35.8617 30.904 40.7621 28.8718 46.6785 30.0026C52.5621 31.1334 56.4299 34.7882 58.1016 40.5571C60.5927 49.1777 54.4632 58.0933 45.5149 59.0275C44.8593 59.0931 44.2037 59.1258 43.5482 59.1258C37.1401 59.1094 30.732 59.1094 24.3239 59.1094ZM29.2078 42.8352C29.0767 42.9007 28.9948 42.9171 28.9292 42.9663C24.3239 45.5721 18.2436 43.5563 16.49 38.1971C16.3752 37.8529 16.2277 37.8857 15.9491 37.9677C14.7363 38.3282 13.5072 38.6396 12.3108 39.0329C10.0655 39.7541 7.86935 40.5571 5.95183 41.983C3.9196 43.4907 2.82154 45.4738 2.88709 48.0633C2.93626 50.4561 2.90348 52.8489 2.88709 55.2416C2.88709 55.7661 2.96904 56.2578 3.18209 56.733C3.37876 57.2083 3.70654 57.4378 4.26377 57.4378C14.9658 57.4214 25.6842 57.4214 36.3862 57.4214C36.5173 57.4214 36.6976 57.5197 36.7959 57.3722C31.4039 54.0125 28.88 49.2105 29.2078 42.8352ZM30.9123 44.4085C30.8795 51.4722 36.6976 57.3394 43.7776 57.3722C51.0379 57.4214 56.9216 51.6033 56.938 44.3594C56.9544 37.3121 51.1035 31.4284 44.0562 31.3957C36.7795 31.3629 30.945 37.1482 30.9123 44.4085ZM25.9956 14.7608C25.9464 14.8428 25.9136 14.9083 25.8645 14.9903C26.2414 15.3181 26.6675 15.5967 27.0117 15.9572C27.5525 16.5145 27.3395 17.2847 26.602 17.4159C23.9142 17.8748 21.4558 17.2684 20.1119 14.4822C19.7841 13.8103 19.5219 13.0892 19.2925 12.3844C19.1286 11.8764 18.8827 11.8272 18.4239 11.9747C17.2602 12.3681 16.7686 13.3186 16.4244 14.3675C15.9163 15.9081 15.818 17.5306 15.8508 19.1531C15.8672 19.6775 15.7852 20.1856 15.2608 20.4806C14.8019 20.7428 14.4577 20.4642 14.0972 20.1856C13.6547 19.8414 13.2941 19.9725 13.1138 20.497C13.0155 20.7756 13.0155 21.0706 13.0974 21.3492C13.376 22.5128 13.8513 23.5945 14.6216 24.5123C14.9658 24.922 15.3591 25.2826 15.9163 25.3809C16.9161 25.5776 16.9816 25.6431 17.0963 26.6756C17.5716 30.7893 20.2594 33.3132 24.3894 33.4115C26.5692 33.4607 28.585 32.9526 30.1092 31.2646C31.3548 29.9043 31.9284 28.2326 32.0923 26.4298C32.1414 25.8726 32.3545 25.4629 32.9445 25.4137C33.6492 25.3645 34.1245 24.9876 34.5506 24.4959C35.3701 23.5453 35.8454 22.4309 36.1076 21.2181C36.1404 21.0542 36.1404 20.8903 36.124 20.7264C36.0748 20.4314 36.0092 20.0873 35.6815 19.9725C35.3209 19.8414 35.1242 20.0873 34.9276 20.3495C34.7145 20.6445 34.4195 20.7592 34.059 20.6937C33.682 20.6117 33.4689 20.3495 33.387 19.9725C33.3542 19.8087 33.3542 19.6448 33.3378 19.4809C33.0756 17.3339 32.7478 15.2033 31.9776 13.1547C31.8792 12.8925 31.83 12.5811 31.535 12.3681C30.2895 14.515 28.3228 15.0558 25.9956 14.7608ZM24.3731 15.7606C24.16 15.4328 23.9961 15.187 23.8486 14.9411C23.5864 14.4822 23.4225 14.007 23.7339 13.4989C24.0289 13.0072 24.5042 12.9417 25.0286 12.9744C25.7661 13.0236 26.5036 13.0892 27.2411 13.1056C28.4211 13.1383 29.3553 12.6631 29.9945 11.6797C30.2731 11.2536 30.5025 10.7947 30.7484 10.3522C31.1581 9.64748 31.8137 9.6147 32.3217 10.2539C33.0264 11.1717 33.5345 12.1878 33.8951 13.2858C33.9442 13.4333 33.9115 13.6628 34.2228 13.7283C34.2228 12.4992 34.2884 11.27 34.2065 10.0736C34.0753 8.1233 33.2395 6.51718 31.7317 5.25523C29.0111 2.97716 25.8808 2.23966 22.4392 2.96077C18.2272 3.82939 13.753 7.81191 14.2119 13.63C14.2447 14.0233 14.2611 14.4331 14.4741 14.8264C14.6872 14.22 14.8511 13.6464 15.0805 13.0892C15.5886 11.9092 16.3425 10.9094 17.588 10.4505C19.653 9.71304 20.3414 10.2867 20.9478 11.9092C21.21 12.6303 21.4394 13.3842 21.8164 14.0561C22.3736 15.0231 23.1603 15.6131 24.3731 15.7606ZM24.8811 42.3599C26.52 42.3599 28.1425 41.7207 29.4864 40.3932C29.7159 40.1638 29.8961 39.9016 30.0109 39.5902C30.2075 39.0329 30.4206 38.4921 30.6992 37.9513C30.8631 37.6235 30.8959 37.4596 30.4698 37.3776C29.9781 37.2793 29.7159 36.9351 29.5684 36.4763C29.3881 35.8699 29.1423 35.2799 28.9456 34.6899C28.8636 34.4276 28.7817 34.3457 28.4867 34.4604C25.8972 35.411 23.2914 35.411 20.7019 34.4276C20.4233 34.3129 20.325 34.3621 20.1939 34.6243C19.8989 35.2799 19.5547 35.9026 19.2597 36.5418C19.0958 36.886 18.8991 37.1482 18.5222 37.1974C18.0469 37.2793 18.0633 37.5088 18.1944 37.8857C19.1122 40.5243 21.7836 42.3763 24.8811 42.3599Z" stroke="#1C468C" stroke-width="0.4" mask="url(#path-1-outside-1_167_277)"/>
<path d="M42.8662 38.7554C42.7792 38.7601 42.7391 38.7793 42.7178 38.8013C42.6871 38.8333 42.6641 38.9019 42.6641 39.0659C42.6804 40.1479 42.6805 41.23 42.6641 42.312C42.6638 42.7443 42.5576 43.0848 42.3281 43.3188C42.0984 43.553 41.7615 43.6629 41.3369 43.6714L41.3379 43.6724C40.6482 43.6888 39.9389 43.6724 39.2539 43.6724C39.1097 43.6724 38.954 43.6601 38.8008 43.646C38.6458 43.6318 38.4933 43.6159 38.3496 43.6089C38.2058 43.6018 38.0764 43.6037 37.9688 43.6226C37.8607 43.6415 37.7837 43.6758 37.7344 43.7251C37.5894 43.8703 37.5673 44.1046 37.5879 44.4136C37.5983 44.5692 37.6164 44.7187 37.6299 44.8862C37.6428 45.0473 37.6502 45.2126 37.6328 45.3696C37.6172 45.5438 37.6466 45.6089 37.6797 45.6382C37.7183 45.6722 37.798 45.6933 37.9707 45.6851H37.9736C39.1218 45.6687 40.2708 45.6687 41.4189 45.6851H41.4199C41.7986 45.6937 42.1079 45.8062 42.3271 46.0229C42.5462 46.2397 42.6634 46.5491 42.6807 46.9272V46.9292C42.6971 47.4555 42.6807 48.0347 42.6807 48.604V49.2544C42.6767 49.3328 42.6692 49.4126 42.6611 49.4917C42.6446 49.6538 42.6244 49.8104 42.6133 49.9614C42.6022 50.1114 42.6008 50.2448 42.6211 50.355C42.6413 50.464 42.6807 50.5409 42.7412 50.5903L42.8037 50.6313C42.9597 50.7168 43.1824 50.7309 43.4551 50.7183C43.7508 50.7046 44.1041 50.658 44.4072 50.6831C44.5713 50.6906 44.6253 50.6606 44.6484 50.6323C44.6618 50.616 44.6735 50.5901 44.6816 50.5464C44.6898 50.5025 44.6933 50.4468 44.6934 50.3755L44.6807 48.7183C44.6807 48.1648 44.6852 47.6114 44.6934 47.062C44.6936 46.6055 44.8034 46.2511 45.0488 46.0103C45.2937 45.77 45.6557 45.6603 46.1191 45.6519H46.1211C46.731 45.6519 47.3486 45.6682 47.9531 45.6519H47.9541C48.1046 45.6476 48.2667 45.6623 48.4258 45.6792C48.5875 45.6964 48.7445 45.716 48.8936 45.7261C49.0423 45.7361 49.1744 45.7358 49.2832 45.7144C49.391 45.693 49.4676 45.6529 49.5176 45.5913C49.6395 45.4346 49.6637 45.1873 49.6514 44.8794C49.6453 44.7276 49.6311 44.5718 49.6201 44.4116C49.6093 44.2537 49.6018 44.0938 49.6104 43.9438C49.6182 43.7851 49.5902 43.7247 49.5605 43.6978C49.5278 43.6683 49.46 43.6477 49.3057 43.6558H49.3018C48.2355 43.6722 47.1688 43.6722 46.1025 43.6558V43.6548C45.6388 43.6545 45.281 43.5455 45.04 43.3022C44.7991 43.0589 44.6934 42.7005 44.6934 42.2446C44.6934 41.1823 44.677 40.115 44.6934 39.0659L44.6895 38.9595C44.6816 38.8694 44.6628 38.8253 44.6396 38.8013C44.6114 38.7721 44.5508 38.7476 44.3906 38.7554L44.0332 38.7739C43.6781 38.7863 43.3275 38.7802 42.9678 38.7554H42.8662ZM51.5312 46.145C51.5312 46.5932 51.4257 46.9411 51.1855 47.1743C50.946 47.407 50.5908 47.5073 50.1357 47.5073C49.073 47.5073 48.0053 47.5237 46.9395 47.5073C46.77 47.5074 46.6922 47.5341 46.6533 47.5718C46.6169 47.6074 46.5899 47.6782 46.5977 47.8442C46.6306 48.4542 46.6143 49.034 46.6143 49.604V51.2612C46.6057 51.6773 46.4988 52.0085 46.2764 52.2378C46.0534 52.4676 45.7297 52.5798 45.3203 52.5884H45.3193C44.7861 52.5966 44.2529 52.6001 43.7197 52.6001L42.1201 52.5884C41.6946 52.5799 41.3543 52.4643 41.1211 52.229C40.8879 51.9935 40.7765 51.6529 40.7764 51.2271C40.76 50.0959 40.76 48.9812 40.7764 47.8501L40.7725 47.7446C40.7646 47.6562 40.7458 47.6156 40.7236 47.5933C40.694 47.5636 40.6313 47.5405 40.4668 47.5405C39.3682 47.5569 38.2529 47.5569 37.1543 47.5405V47.5396C36.6903 47.5393 36.3327 47.4298 36.0898 47.187C35.8472 46.9443 35.737 46.5868 35.7285 46.1313V46.1294C35.7285 45.1156 35.7121 44.08 35.7285 43.063C35.7288 42.6364 35.8441 42.2961 36.0791 42.061C36.314 41.8261 36.6543 41.7112 37.0723 41.7026L38.7295 41.6899C39.2826 41.6899 39.8357 41.6935 40.3848 41.7017C40.4728 41.7017 40.5407 41.6983 40.5938 41.688C40.6462 41.6777 40.678 41.6625 40.6982 41.645C40.7361 41.6123 40.7678 41.5413 40.7598 41.3481V41.3462C40.7269 40.2954 40.7432 39.26 40.7432 38.2134C40.7432 37.7487 40.8538 37.3863 41.0967 37.1411C41.3397 36.896 41.6977 36.7857 42.1543 36.7856C43.2008 36.7856 44.2365 36.7693 45.2861 36.7856L45.2852 36.7866C45.7027 36.7866 46.032 36.8924 46.2578 37.1206C46.483 37.3482 46.5891 37.6803 46.5977 38.0962V38.0972C46.6141 39.1634 46.6141 40.2299 46.5977 41.2798V41.2827C46.5894 41.4724 46.6106 41.5649 46.6533 41.6138C46.6927 41.6586 46.7768 41.694 46.9854 41.686H46.9863C48.0537 41.6532 49.1223 41.6694 50.1855 41.6694C50.6184 41.6695 50.9561 41.7756 51.1865 42.0083C51.4164 42.2405 51.5228 42.5817 51.5312 43.0132V46.145Z" fill="#1C468C" stroke="#1C468C" stroke-width="0.2"/>
</svg>
