<svg width="60" height="60" viewBox="0 0 60 60" fill="none" xmlns="http://www.w3.org/2000/svg">
<path d="M29.4381 19.7649C37.7551 19.7479 44.6063 25.5936 45.8334 33.6208C46.4469 37.6259 45.663 41.3924 43.4815 44.835C43.2429 45.21 43.2599 45.4827 43.4644 45.8406C44.9472 48.3629 46.3958 50.9023 47.8615 53.4247C48.1342 53.9019 48.3898 54.3791 48.0149 54.9074C47.674 55.4016 47.1798 55.3676 46.6344 55.2653C45.3221 55.0267 43.9928 54.8563 42.6805 54.6177C42.2203 54.5325 41.9135 54.6347 41.6068 55.0267C40.9421 55.9129 40.2263 56.748 39.5275 57.6002C38.7947 58.5035 38.0789 58.4353 37.4824 57.4127C36.4939 55.7084 35.4884 54.0041 34.534 52.2828C34.3294 51.9078 34.142 51.7886 33.6989 51.9079C30.989 52.6237 28.2792 52.6237 25.5864 51.9079C25.1944 51.8056 25.007 51.9079 24.8025 52.2487C23.831 53.9871 22.8255 55.7084 21.8199 57.4298C21.2405 58.4353 20.5076 58.4864 19.7748 57.5661C19.059 56.6969 18.3261 55.8277 17.6615 54.9415C17.4058 54.6006 17.1502 54.5154 16.7412 54.5836C15.3607 54.8222 13.9802 55.0097 12.5997 55.2483C12.0714 55.3505 11.6112 55.3335 11.3045 54.8563C10.9977 54.3791 11.1511 53.936 11.4067 53.4928C12.8724 50.9705 14.3211 48.4141 15.8038 45.9087C16.0594 45.4656 16.0765 45.1759 15.7868 44.7328C9.63427 35.0183 15.3948 21.9975 26.7113 19.9865C27.7168 19.8501 28.6882 19.7649 29.4381 19.7649ZM43.9757 36.1091C43.9757 28.2012 37.6187 21.8271 29.6938 21.8101C21.7859 21.793 15.3948 28.1671 15.3777 36.075C15.3607 44.017 21.7518 50.4081 29.6938 50.4081C37.6187 50.4081 43.9757 44.017 43.9757 36.1091ZM38.6924 55.4357C39.3912 54.5836 40.0218 53.8337 40.6353 53.0497C41.0273 52.5384 41.4875 52.368 42.1351 52.5044C43.1236 52.6918 44.1291 52.8282 45.2539 52.9986C44.078 50.9534 42.9702 49.0276 41.8454 47.0677C40.2774 48.772 38.522 50.0672 36.4939 51.0046C36.1701 51.158 36.3064 51.2943 36.4257 51.4818C37.1586 52.76 37.9084 54.0723 38.6924 55.4357ZM14.0995 52.9986C15.2243 52.8282 16.2128 52.6918 17.1843 52.5044C17.8489 52.368 18.3262 52.5384 18.7352 53.0838C19.3317 53.8678 19.9793 54.6177 20.644 55.4357C21.445 54.0553 22.1949 52.743 22.9789 51.4306C23.1663 51.1068 22.9959 51.0387 22.7573 50.9364C20.8485 50.0502 19.1783 48.8231 17.7467 47.3063C17.6785 47.2381 17.6103 47.1529 17.474 47.1699C16.3833 49.0446 15.2755 50.9534 14.0995 52.9986Z" fill="#1C468C"/>
<path d="M24.3422 15.2484C24.5637 14.0043 24.7682 12.7431 25.0239 11.4649C25.1091 11.0218 25.058 10.7321 24.7171 10.4082C23.8309 9.60723 22.9958 8.77212 22.1266 7.95406C21.7857 7.63025 21.5471 7.27235 21.7176 6.7781C21.888 6.26682 22.28 6.07934 22.7913 6.02822C24.0183 5.87483 25.2284 5.68736 26.4555 5.53397C26.7793 5.49989 26.9327 5.36354 27.069 5.09086C27.5803 4.00011 28.1257 2.92641 28.654 1.83566C28.8756 1.35846 29.1483 0.983516 29.7277 1.00056C30.2731 1.00056 30.5458 1.35846 30.7503 1.81862C31.2786 2.92641 31.824 4.01715 32.3523 5.14198C32.4716 5.39763 32.608 5.51693 32.9147 5.55101C34.1077 5.68736 35.3178 5.87483 36.5108 6.02822C37.0221 6.09639 37.4652 6.19864 37.6697 6.76106C37.8742 7.35756 37.5675 7.73251 37.1755 8.09041C36.3233 8.89142 35.4882 9.70948 34.6361 10.5105C34.3804 10.7491 34.2952 10.9707 34.3634 11.3456C34.619 12.5727 34.8236 13.7998 35.0451 15.0269C35.1303 15.487 35.0281 15.862 34.6361 16.1517C34.2611 16.4244 33.8862 16.3903 33.4942 16.1858C32.4205 15.6063 31.3127 15.0439 30.2561 14.4304C29.847 14.1918 29.5573 14.2259 29.1653 14.4474C28.0916 15.061 27.0179 15.6404 25.9272 16.2028C25.1261 16.5607 24.3422 16.0665 24.3422 15.2484ZM32.625 13.4078C32.4716 12.5216 32.3523 11.7035 32.1819 10.9025C32.0626 10.3571 32.1989 9.94808 32.5909 9.59018C33.1874 9.02777 33.7839 8.44831 34.4486 7.81772C33.5624 7.68138 32.7784 7.52799 31.9774 7.45982C31.3809 7.40869 31.0059 7.11896 30.7673 6.59063C30.4435 5.87483 30.0856 5.15903 29.6766 4.35801C29.2846 5.17607 28.9267 5.87483 28.6199 6.57359C28.3813 7.10192 28.0405 7.40869 27.4269 7.47686C26.6259 7.56208 25.8249 7.69842 24.9216 7.81772C25.6033 8.46535 26.1998 9.04481 26.8134 9.60723C27.1883 9.96513 27.3076 10.3571 27.2054 10.8684C27.0349 11.6694 26.9156 12.4875 26.7452 13.3908C27.5462 12.9647 28.2791 12.5897 28.9949 12.1807C29.4721 11.908 29.9152 11.9251 30.3753 12.1807C31.0912 12.5897 31.824 12.9817 32.625 13.4078Z" fill="#1C468C"/>
<path d="M15.9745 16.237C15.9915 16.6631 15.8041 16.9358 15.5484 17.1744C14.6792 17.9925 13.8441 18.8276 12.9579 19.6286C12.6341 19.9183 12.5318 20.208 12.617 20.6171C12.8556 21.8101 13.0431 23.0031 13.2817 24.179C13.384 24.6562 13.2817 25.0312 12.9068 25.3039C12.5318 25.5936 12.1228 25.5595 11.7138 25.338C10.606 24.7415 9.49819 24.162 8.42449 23.5485C8.10067 23.378 7.87912 23.378 7.57234 23.5485C6.51568 24.145 5.44198 24.6903 4.38532 25.2698C3.9422 25.5084 3.51613 25.6106 3.07302 25.3039C2.6299 24.9801 2.6299 24.5369 2.73216 24.0427C2.97076 22.8497 3.15823 21.6567 3.39683 20.4807C3.465 20.1569 3.39683 19.9354 3.14119 19.6968C2.23791 18.8617 1.35168 17.9925 0.465451 17.1403C0.124592 16.8165 -0.114009 16.4756 0.0564205 15.9644C0.22685 15.4701 0.584751 15.2826 1.06195 15.2315C2.23791 15.0781 3.41387 14.9077 4.58983 14.7714C4.99886 14.7202 5.27155 14.5839 5.44198 14.1578C5.91918 13.0671 6.46455 12.0274 6.97584 10.9537C7.18036 10.5106 7.45304 10.2039 7.96433 10.2039C8.49266 10.2039 8.76535 10.5106 8.96986 10.9367C9.48115 12.0104 10.0265 13.0671 10.5037 14.1408C10.7082 14.6009 10.998 14.7373 11.4581 14.7884C12.6682 14.9247 13.8612 15.1122 15.0542 15.2826C15.6507 15.4019 15.9063 15.7598 15.9745 16.237ZM7.99842 13.5954C7.58939 14.4305 7.21444 15.1463 6.89063 15.8791C6.65203 16.4245 6.243 16.6802 5.66354 16.7313C4.89661 16.8165 4.12968 16.9358 3.44796 17.021C4.01038 17.6346 4.53871 18.2481 5.11816 18.8446C5.47607 19.2025 5.62945 19.5775 5.51015 20.1058C5.33972 20.9068 5.22042 21.7419 5.06704 22.6281C5.90214 22.185 6.63498 21.8101 7.35079 21.401C7.77686 21.1624 8.16885 21.1454 8.61196 21.401C9.19142 21.7419 9.80496 22.0487 10.4015 22.3555C10.5208 22.4236 10.623 22.5088 10.7594 22.4407C10.9468 22.3555 10.8446 22.168 10.8275 22.0487C10.7423 21.4863 10.6912 20.9068 10.5208 20.3614C10.2992 19.6286 10.5549 19.1173 11.1002 18.6231C11.6286 18.1288 12.0887 17.5664 12.6 17.021C11.8501 16.9188 11.1002 16.7995 10.3503 16.7313C9.73679 16.6802 9.32776 16.3904 9.08916 15.828C8.7483 15.1122 8.3904 14.4305 7.99842 13.5954Z" fill="#1C468C"/>
<path d="M51.3381 10.2207C51.8664 10.2207 52.1561 10.4934 52.3606 10.9024C52.889 11.9932 53.4173 13.0669 53.9286 14.1747C54.116 14.5837 54.3546 14.7712 54.8148 14.8223C56.0248 14.9416 57.2179 15.1461 58.4109 15.2995C58.8881 15.3677 59.1948 15.5892 59.3482 16.0323C59.4846 16.4755 59.3141 16.8163 59.0074 17.1231C58.1041 17.9923 57.2008 18.8615 56.2975 19.7136C56.0419 19.9522 55.9396 20.1738 56.0249 20.5487C56.2805 21.7588 56.468 22.9688 56.7066 24.1788C56.7918 24.622 56.7407 25.031 56.3487 25.3207C55.9396 25.6275 55.5306 25.5764 55.1045 25.3548C54.0138 24.7583 52.906 24.1788 51.8153 23.5653C51.5255 23.3949 51.304 23.3949 51.0142 23.5653C49.9405 24.1618 48.8498 24.7242 47.7761 25.3207C47.333 25.5593 46.8899 25.6445 46.4638 25.3207C46.0547 25.0139 46.0207 24.5879 46.1229 24.1107C46.3615 22.9518 46.549 21.7758 46.7705 20.6169C46.8387 20.2419 46.7876 19.9522 46.4808 19.6625C45.5775 18.8444 44.7254 17.9923 43.8562 17.1572C43.5324 16.8504 43.3108 16.5095 43.4472 16.0323C43.5835 15.5381 43.9414 15.3336 44.4186 15.2654C45.6116 15.112 46.8217 14.9416 48.0147 14.7882C48.4237 14.7371 48.6794 14.5837 48.8668 14.1747C49.3611 13.0669 49.9064 11.9932 50.4348 10.9024C50.5882 10.4934 50.8949 10.2377 51.3381 10.2207ZM48.4408 22.645C49.2418 22.2189 49.9576 21.861 50.6563 21.452C51.1506 21.1623 51.5937 21.1623 52.0879 21.452C52.7867 21.861 53.5195 22.2189 54.3206 22.645C54.1672 21.7417 54.0649 20.9407 53.8774 20.1567C53.7411 19.5602 53.9456 19.1512 54.3546 18.7422C54.9171 18.1968 55.4283 17.6173 55.9908 17.0208C55.2238 16.9186 54.4569 16.7993 53.6729 16.7141C53.0935 16.6459 52.7015 16.3902 52.4458 15.8449C52.122 15.112 51.7471 14.3962 51.3551 13.5782C50.9631 14.3962 50.6052 15.0779 50.2984 15.7937C50.0428 16.3902 49.6167 16.6629 48.9861 16.7141C48.2362 16.7822 47.4864 16.9015 46.7705 17.0038C47.3159 17.6003 47.8272 18.1797 48.3896 18.7251C48.8327 19.1512 49.0032 19.5943 48.8498 20.2078C48.6794 20.9918 48.5941 21.7758 48.4408 22.645Z" fill="#1C468C"/>
<path d="M19.6216 36.1088C19.6216 30.5869 24.138 26.0705 29.6599 26.0535C35.1988 26.0535 39.7493 30.6039 39.7322 36.1429C39.7152 41.6648 35.1647 46.1811 29.6599 46.1641C24.138 46.1641 19.6216 41.6307 19.6216 36.1088ZM37.6871 36.1088C37.6871 31.6947 34.0569 28.0816 29.6428 28.1157C25.2457 28.1327 21.6838 31.7117 21.6497 36.1088C21.6326 40.5059 25.2457 44.136 29.6599 44.136C34.091 44.136 37.7041 40.5229 37.6871 36.1088Z" fill="#1C468C"/>
<path d="M28.0573 38.1369C29.6082 36.586 31.108 35.0862 32.6078 33.5864C32.8805 33.3137 33.1702 33.0581 33.5963 33.0922C34.0053 33.1263 34.3121 33.3478 34.4655 33.7398C34.6189 34.1488 34.5336 34.5408 34.2269 34.8476C33.494 35.5804 32.7612 36.3133 32.0283 37.0632C30.9376 38.1539 29.8468 39.2617 28.7391 40.3525C28.0062 41.0853 27.3586 41.0001 26.8473 40.1139C26.2508 39.0913 25.6543 38.0687 25.0748 37.0291C24.6999 36.3474 24.7851 35.802 25.3305 35.4782C25.8759 35.1373 26.4383 35.3418 26.8473 36.0406C27.2393 36.7223 27.6313 37.4211 28.0573 38.1369Z" fill="#1C468C"/>
</svg>
