<svg width="60" height="60" viewBox="0 0 60 60" fill="none" xmlns="http://www.w3.org/2000/svg">
<mask id="path-1-outside-1_167_346" maskUnits="userSpaceOnUse" x="31.0112" y="14.6187" width="26" height="44" fill="black">
<rect fill="white" x="31.0112" y="14.6187" width="26" height="44"/>
<path d="M41.5429 58.0493C41.1771 57.8006 41.0454 57.4349 40.9577 57.0106C40.3432 53.9967 39.7433 50.9682 39.6702 47.8812C39.6556 47.4716 39.5239 47.4862 39.2166 47.6325C38.3827 47.9983 37.5488 48.3494 36.7002 48.6859C36.115 48.9346 35.6322 48.7883 35.4566 48.3348C35.2664 47.852 35.4713 47.4423 36.0711 47.1936C37.1245 46.7401 38.1779 46.3012 39.2313 45.8623C39.4654 45.7598 39.6263 45.6867 39.6263 45.3648C39.6263 41.9413 40.3432 38.591 40.943 35.2406C41.2649 33.4703 41.4258 31.6708 41.5429 29.7835C40.7821 30.1346 40.0652 30.4711 39.3483 30.793C37.344 31.7147 35.3542 32.6364 33.3645 33.5581C33.0134 33.7191 32.6769 33.8068 32.3404 33.5581C31.7991 33.1631 31.9454 32.417 32.633 32.0951C34.652 31.1441 36.6856 30.2078 38.7192 29.2714C39.5824 28.8764 40.431 28.4668 41.2942 28.0864C41.5575 27.9693 41.6453 27.823 41.6307 27.5451C41.6014 26.9013 41.6014 26.2722 41.5868 25.6285C41.5721 25.0286 41.8501 24.6482 42.3475 24.6044C42.8157 24.5605 43.1376 24.8531 43.24 25.4383C43.3131 25.8479 43.3863 26.2722 43.4009 26.6819C43.4156 27.0184 43.5472 27.033 43.8106 26.9013C44.4689 26.5795 45.1273 26.2722 45.7857 25.9796C46.0198 25.8772 46.0783 25.7748 45.9466 25.5407C45.6686 24.9847 45.4199 24.4288 45.1566 23.8582C44.8932 23.2876 44.981 22.8487 45.4053 22.6146C45.8296 22.3659 46.2246 22.4976 46.5757 23.0389C46.6781 23.2145 46.7513 23.2584 46.9561 23.1559C47.4535 22.9072 47.9802 22.6731 48.4923 22.4537C48.7556 22.3513 48.7264 22.205 48.6532 21.9855C48.3899 21.3125 46.8244 17.538 46.5757 16.865C46.3709 16.309 46.5318 15.8409 46.9854 15.6799C47.4535 15.5044 47.8924 15.7092 48.1119 16.2651C48.3752 16.9089 49.9261 20.6395 50.1455 21.2979C50.2333 21.5759 50.3357 21.6344 50.5991 21.5027C51.0965 21.2394 51.6086 21.0053 52.1352 20.7858C53.0716 20.3908 53.9787 20.7127 54.4322 21.6344C54.7687 22.322 55.0906 23.0096 55.3978 23.7119C55.8221 24.6775 55.4856 25.57 54.5346 26.0381C53.8031 26.4039 53.057 26.7404 52.3108 27.0769C52.0328 27.1939 51.9451 27.311 52.0328 27.6328C52.4717 29.4909 52.8375 31.3782 53.0862 33.2655C53.174 33.8946 52.9107 34.3043 52.3986 34.3774C51.9304 34.4359 51.55 34.1287 51.4623 33.5289C51.2135 31.8317 50.9063 30.1493 50.5259 28.4814C50.4967 28.3205 50.4381 28.1595 50.3942 27.984C50.1455 28.0864 49.9261 28.2034 49.692 28.2912C49.3409 28.4229 49.1214 28.5399 49.3116 29.0227C49.4725 29.4324 49.2384 29.8128 48.7849 29.9591C48.3314 30.1054 47.9949 29.9298 47.79 29.5202C47.4828 28.9203 47.2048 28.3058 46.9415 27.6914C46.8391 27.4426 46.7366 27.3695 46.4587 27.5012C45.7272 27.8669 44.981 28.2034 44.2349 28.5253C43.9423 28.6423 43.9276 28.8033 44.0154 29.0812C44.4543 30.6174 44.8786 32.1682 45.3029 33.7044C45.4638 34.2896 45.2882 34.7285 44.8201 34.8602C44.308 35.0212 43.913 34.7724 43.7374 34.158C43.5326 33.485 43.357 32.7973 43.0352 32.1243C42.962 32.6803 42.8889 33.2363 42.8303 33.8068C42.5816 35.9575 42.0696 38.0789 41.7331 40.2149C41.499 41.678 41.3527 43.141 41.3088 44.6187C41.2942 44.882 41.3234 44.9991 41.6307 44.8528C43.2693 44.1505 44.9079 43.4482 46.5611 42.7752C46.8683 42.6582 46.8391 42.5265 46.722 42.2924C46.444 41.7365 46.1953 41.1805 45.9466 40.61C45.7125 40.0686 45.8149 39.659 46.2392 39.4249C46.6635 39.1908 47.0731 39.3078 47.3658 39.8345C47.5267 40.1271 47.673 40.0247 47.8778 39.9223C49.4872 39.1762 51.1111 38.43 52.7351 37.6839C53.8909 37.1572 54.7541 37.4644 55.2954 38.591C55.6026 39.2347 55.9099 39.8638 56.1879 40.5222C56.5975 41.4585 56.261 42.3802 55.3686 42.8338C54.9589 43.0386 51.3306 44.7165 50.9063 44.8921C50.4382 45.0823 50.0139 44.8921 49.8237 44.4532C49.6481 44.0435 49.8091 43.6485 50.2333 43.3998C50.2772 43.3705 50.3358 43.3705 50.3796 43.3413C50.7308 43.1218 54.5639 41.6048 54.637 41.2537C54.7102 40.9318 54.3591 40.5075 54.1835 40.1271C53.6861 39.0591 53.6861 39.0591 52.618 39.5566C51.2867 40.171 49.9553 40.8148 48.6093 41.4C48.2289 41.5609 48.2143 41.7219 48.3899 42.0291C48.463 42.1315 48.5069 42.2632 48.5508 42.3656C48.7703 42.8338 48.8581 43.4629 49.2238 43.697C49.6188 43.9603 50.1016 43.3897 50.5552 43.2434C51.0526 43.0825 51.4476 43.2434 51.6378 43.6823C51.8134 44.092 51.6671 44.487 51.2282 44.7357C51.0526 44.8381 50.8624 44.9113 50.6868 44.9991C50.2772 45.1893 49.809 45.277 50.087 45.9647C50.2333 46.3304 49.9261 46.6669 49.531 46.784C49.1214 46.901 48.7556 46.7547 48.5654 46.3597C48.2728 45.7598 47.9656 45.1454 47.7169 44.5309C47.5852 44.1944 47.4243 44.1798 47.117 44.3114C45.3175 45.0868 43.5033 45.8476 41.6892 46.5938C41.3527 46.7254 41.2356 46.8864 41.2503 47.2814C41.3234 50.3099 41.8501 53.2652 42.45 56.2059C42.4792 56.3522 42.4792 56.4985 42.5377 56.6302C42.7426 57.1862 42.6401 57.6836 42.1866 58.0786C41.9818 58.0493 41.7623 58.0493 41.5429 58.0493ZM52.779 22.2781C52.7497 22.2928 52.7205 22.3074 52.6766 22.322C50.9941 23.0974 49.3262 23.8728 47.6437 24.6482C47.4535 24.736 47.4096 24.8238 47.4974 25.0286C47.7754 25.6139 48.0534 26.2137 48.3167 26.7989C48.4045 27.0037 48.5216 27.0037 48.6971 26.916C50.3503 26.1405 52.0182 25.3651 53.6861 24.6044C53.8763 24.5166 53.9055 24.4288 53.8177 24.2386C53.5251 23.6534 53.2764 23.0535 52.9984 22.4683C52.9692 22.3659 52.9399 22.2342 52.779 22.2781Z"/>
</mask>
<path d="M41.5429 58.0493C41.1771 57.8006 41.0454 57.4349 40.9577 57.0106C40.3432 53.9967 39.7433 50.9682 39.6702 47.8812C39.6556 47.4716 39.5239 47.4862 39.2166 47.6325C38.3827 47.9983 37.5488 48.3494 36.7002 48.6859C36.115 48.9346 35.6322 48.7883 35.4566 48.3348C35.2664 47.852 35.4713 47.4423 36.0711 47.1936C37.1245 46.7401 38.1779 46.3012 39.2313 45.8623C39.4654 45.7598 39.6263 45.6867 39.6263 45.3648C39.6263 41.9413 40.3432 38.591 40.943 35.2406C41.2649 33.4703 41.4258 31.6708 41.5429 29.7835C40.7821 30.1346 40.0652 30.4711 39.3483 30.793C37.344 31.7147 35.3542 32.6364 33.3645 33.5581C33.0134 33.7191 32.6769 33.8068 32.3404 33.5581C31.7991 33.1631 31.9454 32.417 32.633 32.0951C34.652 31.1441 36.6856 30.2078 38.7192 29.2714C39.5824 28.8764 40.431 28.4668 41.2942 28.0864C41.5575 27.9693 41.6453 27.823 41.6307 27.5451C41.6014 26.9013 41.6014 26.2722 41.5868 25.6285C41.5721 25.0286 41.8501 24.6482 42.3475 24.6044C42.8157 24.5605 43.1376 24.8531 43.24 25.4383C43.3131 25.8479 43.3863 26.2722 43.4009 26.6819C43.4156 27.0184 43.5472 27.033 43.8106 26.9013C44.4689 26.5795 45.1273 26.2722 45.7857 25.9796C46.0198 25.8772 46.0783 25.7748 45.9466 25.5407C45.6686 24.9847 45.4199 24.4288 45.1566 23.8582C44.8932 23.2876 44.981 22.8487 45.4053 22.6146C45.8296 22.3659 46.2246 22.4976 46.5757 23.0389C46.6781 23.2145 46.7513 23.2584 46.9561 23.1559C47.4535 22.9072 47.9802 22.6731 48.4923 22.4537C48.7556 22.3513 48.7264 22.205 48.6532 21.9855C48.3899 21.3125 46.8244 17.538 46.5757 16.865C46.3709 16.309 46.5318 15.8409 46.9854 15.6799C47.4535 15.5044 47.8924 15.7092 48.1119 16.2651C48.3752 16.9089 49.9261 20.6395 50.1455 21.2979C50.2333 21.5759 50.3357 21.6344 50.5991 21.5027C51.0965 21.2394 51.6086 21.0053 52.1352 20.7858C53.0716 20.3908 53.9787 20.7127 54.4322 21.6344C54.7687 22.322 55.0906 23.0096 55.3978 23.7119C55.8221 24.6775 55.4856 25.57 54.5346 26.0381C53.8031 26.4039 53.057 26.7404 52.3108 27.0769C52.0328 27.1939 51.9451 27.311 52.0328 27.6328C52.4717 29.4909 52.8375 31.3782 53.0862 33.2655C53.174 33.8946 52.9107 34.3043 52.3986 34.3774C51.9304 34.4359 51.55 34.1287 51.4623 33.5289C51.2135 31.8317 50.9063 30.1493 50.5259 28.4814C50.4967 28.3205 50.4381 28.1595 50.3942 27.984C50.1455 28.0864 49.9261 28.2034 49.692 28.2912C49.3409 28.4229 49.1214 28.5399 49.3116 29.0227C49.4725 29.4324 49.2384 29.8128 48.7849 29.9591C48.3314 30.1054 47.9949 29.9298 47.79 29.5202C47.4828 28.9203 47.2048 28.3058 46.9415 27.6914C46.8391 27.4426 46.7366 27.3695 46.4587 27.5012C45.7272 27.8669 44.981 28.2034 44.2349 28.5253C43.9423 28.6423 43.9276 28.8033 44.0154 29.0812C44.4543 30.6174 44.8786 32.1682 45.3029 33.7044C45.4638 34.2896 45.2882 34.7285 44.8201 34.8602C44.308 35.0212 43.913 34.7724 43.7374 34.158C43.5326 33.485 43.357 32.7973 43.0352 32.1243C42.962 32.6803 42.8889 33.2363 42.8303 33.8068C42.5816 35.9575 42.0696 38.0789 41.7331 40.2149C41.499 41.678 41.3527 43.141 41.3088 44.6187C41.2942 44.882 41.3234 44.9991 41.6307 44.8528C43.2693 44.1505 44.9079 43.4482 46.5611 42.7752C46.8683 42.6582 46.8391 42.5265 46.722 42.2924C46.444 41.7365 46.1953 41.1805 45.9466 40.61C45.7125 40.0686 45.8149 39.659 46.2392 39.4249C46.6635 39.1908 47.0731 39.3078 47.3658 39.8345C47.5267 40.1271 47.673 40.0247 47.8778 39.9223C49.4872 39.1762 51.1111 38.43 52.7351 37.6839C53.8909 37.1572 54.7541 37.4644 55.2954 38.591C55.6026 39.2347 55.9099 39.8638 56.1879 40.5222C56.5975 41.4585 56.261 42.3802 55.3686 42.8338C54.9589 43.0386 51.3306 44.7165 50.9063 44.8921C50.4382 45.0823 50.0139 44.8921 49.8237 44.4532C49.6481 44.0435 49.8091 43.6485 50.2333 43.3998C50.2772 43.3705 50.3358 43.3705 50.3796 43.3413C50.7308 43.1218 54.5639 41.6048 54.637 41.2537C54.7102 40.9318 54.3591 40.5075 54.1835 40.1271C53.6861 39.0591 53.6861 39.0591 52.618 39.5566C51.2867 40.171 49.9553 40.8148 48.6093 41.4C48.2289 41.5609 48.2143 41.7219 48.3899 42.0291C48.463 42.1315 48.5069 42.2632 48.5508 42.3656C48.7703 42.8338 48.8581 43.4629 49.2238 43.697C49.6188 43.9603 50.1016 43.3897 50.5552 43.2434C51.0526 43.0825 51.4476 43.2434 51.6378 43.6823C51.8134 44.092 51.6671 44.487 51.2282 44.7357C51.0526 44.8381 50.8624 44.9113 50.6868 44.9991C50.2772 45.1893 49.809 45.277 50.087 45.9647C50.2333 46.3304 49.9261 46.6669 49.531 46.784C49.1214 46.901 48.7556 46.7547 48.5654 46.3597C48.2728 45.7598 47.9656 45.1454 47.7169 44.5309C47.5852 44.1944 47.4243 44.1798 47.117 44.3114C45.3175 45.0868 43.5033 45.8476 41.6892 46.5938C41.3527 46.7254 41.2356 46.8864 41.2503 47.2814C41.3234 50.3099 41.8501 53.2652 42.45 56.2059C42.4792 56.3522 42.4792 56.4985 42.5377 56.6302C42.7426 57.1862 42.6401 57.6836 42.1866 58.0786C41.9818 58.0493 41.7623 58.0493 41.5429 58.0493ZM52.779 22.2781C52.7497 22.2928 52.7205 22.3074 52.6766 22.322C50.9941 23.0974 49.3262 23.8728 47.6437 24.6482C47.4535 24.736 47.4096 24.8238 47.4974 25.0286C47.7754 25.6139 48.0534 26.2137 48.3167 26.7989C48.4045 27.0037 48.5216 27.0037 48.6971 26.916C50.3503 26.1405 52.0182 25.3651 53.6861 24.6044C53.8763 24.5166 53.9055 24.4288 53.8177 24.2386C53.5251 23.6534 53.2764 23.0535 52.9984 22.4683C52.9692 22.3659 52.9399 22.2342 52.779 22.2781Z" fill="#1C468C"/>
<path d="M41.5429 58.0493C41.1771 57.8006 41.0454 57.4349 40.9577 57.0106C40.3432 53.9967 39.7433 50.9682 39.6702 47.8812C39.6556 47.4716 39.5239 47.4862 39.2166 47.6325C38.3827 47.9983 37.5488 48.3494 36.7002 48.6859C36.115 48.9346 35.6322 48.7883 35.4566 48.3348C35.2664 47.852 35.4713 47.4423 36.0711 47.1936C37.1245 46.7401 38.1779 46.3012 39.2313 45.8623C39.4654 45.7598 39.6263 45.6867 39.6263 45.3648C39.6263 41.9413 40.3432 38.591 40.943 35.2406C41.2649 33.4703 41.4258 31.6708 41.5429 29.7835C40.7821 30.1346 40.0652 30.4711 39.3483 30.793C37.344 31.7147 35.3542 32.6364 33.3645 33.5581C33.0134 33.7191 32.6769 33.8068 32.3404 33.5581C31.7991 33.1631 31.9454 32.417 32.633 32.0951C34.652 31.1441 36.6856 30.2078 38.7192 29.2714C39.5824 28.8764 40.431 28.4668 41.2942 28.0864C41.5575 27.9693 41.6453 27.823 41.6307 27.5451C41.6014 26.9013 41.6014 26.2722 41.5868 25.6285C41.5721 25.0286 41.8501 24.6482 42.3475 24.6044C42.8157 24.5605 43.1376 24.8531 43.24 25.4383C43.3131 25.8479 43.3863 26.2722 43.4009 26.6819C43.4156 27.0184 43.5472 27.033 43.8106 26.9013C44.4689 26.5795 45.1273 26.2722 45.7857 25.9796C46.0198 25.8772 46.0783 25.7748 45.9466 25.5407C45.6686 24.9847 45.4199 24.4288 45.1566 23.8582C44.8932 23.2876 44.981 22.8487 45.4053 22.6146C45.8296 22.3659 46.2246 22.4976 46.5757 23.0389C46.6781 23.2145 46.7513 23.2584 46.9561 23.1559C47.4535 22.9072 47.9802 22.6731 48.4923 22.4537C48.7556 22.3513 48.7264 22.205 48.6532 21.9855C48.3899 21.3125 46.8244 17.538 46.5757 16.865C46.3709 16.309 46.5318 15.8409 46.9854 15.6799C47.4535 15.5044 47.8924 15.7092 48.1119 16.2651C48.3752 16.9089 49.9261 20.6395 50.1455 21.2979C50.2333 21.5759 50.3357 21.6344 50.5991 21.5027C51.0965 21.2394 51.6086 21.0053 52.1352 20.7858C53.0716 20.3908 53.9787 20.7127 54.4322 21.6344C54.7687 22.322 55.0906 23.0096 55.3978 23.7119C55.8221 24.6775 55.4856 25.57 54.5346 26.0381C53.8031 26.4039 53.057 26.7404 52.3108 27.0769C52.0328 27.1939 51.9451 27.311 52.0328 27.6328C52.4717 29.4909 52.8375 31.3782 53.0862 33.2655C53.174 33.8946 52.9107 34.3043 52.3986 34.3774C51.9304 34.4359 51.55 34.1287 51.4623 33.5289C51.2135 31.8317 50.9063 30.1493 50.5259 28.4814C50.4967 28.3205 50.4381 28.1595 50.3942 27.984C50.1455 28.0864 49.9261 28.2034 49.692 28.2912C49.3409 28.4229 49.1214 28.5399 49.3116 29.0227C49.4725 29.4324 49.2384 29.8128 48.7849 29.9591C48.3314 30.1054 47.9949 29.9298 47.79 29.5202C47.4828 28.9203 47.2048 28.3058 46.9415 27.6914C46.8391 27.4426 46.7366 27.3695 46.4587 27.5012C45.7272 27.8669 44.981 28.2034 44.2349 28.5253C43.9423 28.6423 43.9276 28.8033 44.0154 29.0812C44.4543 30.6174 44.8786 32.1682 45.3029 33.7044C45.4638 34.2896 45.2882 34.7285 44.8201 34.8602C44.308 35.0212 43.913 34.7724 43.7374 34.158C43.5326 33.485 43.357 32.7973 43.0352 32.1243C42.962 32.6803 42.8889 33.2363 42.8303 33.8068C42.5816 35.9575 42.0696 38.0789 41.7331 40.2149C41.499 41.678 41.3527 43.141 41.3088 44.6187C41.2942 44.882 41.3234 44.9991 41.6307 44.8528C43.2693 44.1505 44.9079 43.4482 46.5611 42.7752C46.8683 42.6582 46.8391 42.5265 46.722 42.2924C46.444 41.7365 46.1953 41.1805 45.9466 40.61C45.7125 40.0686 45.8149 39.659 46.2392 39.4249C46.6635 39.1908 47.0731 39.3078 47.3658 39.8345C47.5267 40.1271 47.673 40.0247 47.8778 39.9223C49.4872 39.1762 51.1111 38.43 52.7351 37.6839C53.8909 37.1572 54.7541 37.4644 55.2954 38.591C55.6026 39.2347 55.9099 39.8638 56.1879 40.5222C56.5975 41.4585 56.261 42.3802 55.3686 42.8338C54.9589 43.0386 51.3306 44.7165 50.9063 44.8921C50.4382 45.0823 50.0139 44.8921 49.8237 44.4532C49.6481 44.0435 49.8091 43.6485 50.2333 43.3998C50.2772 43.3705 50.3358 43.3705 50.3796 43.3413C50.7308 43.1218 54.5639 41.6048 54.637 41.2537C54.7102 40.9318 54.3591 40.5075 54.1835 40.1271C53.6861 39.0591 53.6861 39.0591 52.618 39.5566C51.2867 40.171 49.9553 40.8148 48.6093 41.4C48.2289 41.5609 48.2143 41.7219 48.3899 42.0291C48.463 42.1315 48.5069 42.2632 48.5508 42.3656C48.7703 42.8338 48.8581 43.4629 49.2238 43.697C49.6188 43.9603 50.1016 43.3897 50.5552 43.2434C51.0526 43.0825 51.4476 43.2434 51.6378 43.6823C51.8134 44.092 51.6671 44.487 51.2282 44.7357C51.0526 44.8381 50.8624 44.9113 50.6868 44.9991C50.2772 45.1893 49.809 45.277 50.087 45.9647C50.2333 46.3304 49.9261 46.6669 49.531 46.784C49.1214 46.901 48.7556 46.7547 48.5654 46.3597C48.2728 45.7598 47.9656 45.1454 47.7169 44.5309C47.5852 44.1944 47.4243 44.1798 47.117 44.3114C45.3175 45.0868 43.5033 45.8476 41.6892 46.5938C41.3527 46.7254 41.2356 46.8864 41.2503 47.2814C41.3234 50.3099 41.8501 53.2652 42.45 56.2059C42.4792 56.3522 42.4792 56.4985 42.5377 56.6302C42.7426 57.1862 42.6401 57.6836 42.1866 58.0786C41.9818 58.0493 41.7623 58.0493 41.5429 58.0493ZM52.779 22.2781C52.7497 22.2928 52.7205 22.3074 52.6766 22.322C50.9941 23.0974 49.3262 23.8728 47.6437 24.6482C47.4535 24.736 47.4096 24.8238 47.4974 25.0286C47.7754 25.6139 48.0534 26.2137 48.3167 26.7989C48.4045 27.0037 48.5216 27.0037 48.6971 26.916C50.3503 26.1405 52.0182 25.3651 53.6861 24.6044C53.8763 24.5166 53.9055 24.4288 53.8177 24.2386C53.5251 23.6534 53.2764 23.0535 52.9984 22.4683C52.9692 22.3659 52.9399 22.2342 52.779 22.2781Z" stroke="#1C468C" stroke-width="0.2" mask="url(#path-1-outside-1_167_346)"/>
<path d="M14.9639 24.5691C15.2173 24.5921 15.4283 24.7005 15.5713 24.8845C15.6961 25.0452 15.766 25.2602 15.7715 25.5183L15.7705 25.6306C15.6682 28.6556 15.8721 31.6811 16.3252 34.6775C16.5558 36.1487 16.8278 37.6078 17.085 39.074L17.335 40.5437V40.5447C17.3553 40.6871 17.4082 40.766 17.4785 40.8191C17.5521 40.8747 17.6483 40.9052 17.7666 40.9421H17.7676C20.049 41.6149 22.3309 42.288 24.627 42.9607C24.7459 42.9904 24.8795 43.0348 24.9971 43.0789C25.2749 43.1765 25.481 43.3253 25.5967 43.5154C25.7131 43.7067 25.735 43.9346 25.6582 44.1804L25.6572 44.1794C25.588 44.4246 25.4455 44.6086 25.2451 44.7107C25.0701 44.7999 24.8562 44.8249 24.6182 44.7791L24.5146 44.7546C23.6077 44.506 22.6975 44.2126 21.793 43.95H21.792C20.4219 43.5461 19.0535 43.1284 17.6562 42.7244C17.6547 43.0488 17.6436 43.3198 17.6572 43.6062L17.7021 44.3552C17.8834 48.0993 17.4736 51.8037 16.7051 55.4685L16.7061 55.4695C16.6179 55.91 16.5153 56.3619 16.4424 56.8142C16.3686 57.3008 16.2344 57.7512 15.873 58.1277L15.8545 58.1472L15.8281 58.1423C15.5993 58.0994 15.384 58.0994 15.1641 58.0994H15.1494L15.1367 58.0906C14.904 57.9329 14.7454 57.7537 14.6621 57.5369C14.5791 57.3204 14.5731 57.0722 14.6328 56.781L14.9258 55.3699C15.5861 52.0745 16.0651 48.7538 15.9629 45.3669C15.9483 44.8852 15.9157 44.4026 15.8828 43.9197C15.8499 43.4374 15.8164 42.954 15.8018 42.4705C15.7947 42.3367 15.7671 42.2457 15.7158 42.1804C15.6646 42.1153 15.5842 42.069 15.458 42.0339C14.8138 41.8582 14.1696 41.6676 13.5254 41.4626C13.387 41.419 13.3023 41.4141 13.2451 41.4441C13.1892 41.4734 13.1425 41.5454 13.1064 41.7039C12.9891 42.2756 12.8273 42.8339 12.6816 43.4021V43.4031C12.5996 43.7089 12.4675 43.9461 12.291 44.0974C12.1354 44.2308 11.9477 44.2948 11.7373 44.283L11.6455 44.2732C11.3932 44.235 11.1962 44.1226 11.0752 43.9304C10.9552 43.7395 10.9152 43.4776 10.96 43.1492C10.9703 43.0626 10.9631 43.0046 10.9482 42.9656C10.934 42.9283 10.911 42.9051 10.8818 42.8884C10.851 42.8708 10.8122 42.8602 10.7656 42.8513C10.7226 42.8431 10.6652 42.835 10.6172 42.824H10.6162C9.74574 42.5972 8.87536 42.3701 8.00488 42.1433L5.39355 41.4636C4.83488 41.3221 4.42021 41.0331 4.18164 40.6335C3.94318 40.2341 3.8849 39.7297 4.02637 39.1638C4.20176 38.4622 4.37689 37.7441 4.58203 37.0554C4.73114 36.5337 5.01622 36.1419 5.39844 35.9148C5.78103 35.6875 6.25646 35.628 6.7793 35.7625H6.77832C8.56346 36.2014 10.3493 36.6555 12.1201 37.1384H12.1191C12.1952 37.1565 12.2576 37.1689 12.3105 37.1736C12.3635 37.1782 12.4034 37.1744 12.4355 37.1619C12.4968 37.1379 12.5492 37.0743 12.5996 36.9089C12.676 36.6567 12.8164 36.4865 13.0029 36.3953C13.188 36.3048 13.4124 36.2947 13.6533 36.3474L13.7344 36.3699C14.1263 36.5 14.3483 36.9297 14.248 37.4021C14.1161 38.047 13.9546 38.6926 13.749 39.3093C13.6846 39.5027 13.694 39.6109 13.7422 39.6804C13.7929 39.7533 13.8969 39.8005 14.0654 39.8445H14.0645C14.5535 39.9702 15.0296 40.1093 15.5674 40.2742C15.0768 37.5189 14.4643 34.8245 14.2705 32.0623C14.2588 32.0685 14.2494 32.0756 14.2412 32.0828C14.2224 32.0994 14.2089 32.1194 14.1992 32.1433C14.1893 32.1677 14.1833 32.1948 14.1777 32.2244C14.1725 32.2521 14.1673 32.2857 14.1592 32.3142C14.0715 32.6285 13.9832 32.9432 13.8955 33.2576C13.8078 33.572 13.7206 33.8865 13.6328 34.2009L13.6318 34.2019C13.5418 34.4946 13.3974 34.7081 13.2051 34.8298C13.0118 34.9521 12.7768 34.9776 12.5176 34.9089L12.5166 34.908C12.2775 34.8384 12.1011 34.6909 12.0049 34.4871C11.9091 34.2837 11.8952 34.029 11.9707 33.7498C12.4095 32.1114 12.8482 30.4872 13.3164 28.863V28.8621C13.6377 27.7666 13.901 26.643 14.0322 25.5056C14.0696 25.1845 14.1714 24.9387 14.332 24.7781C14.494 24.6161 14.7101 24.5461 14.9639 24.5691ZM6.5332 37.4978C6.40176 37.4613 6.33719 37.465 6.29883 37.489C6.25986 37.5136 6.23058 37.5703 6.20117 37.6951L6.2002 37.696C6.12699 37.9962 6.05034 38.2963 5.97168 38.5945L5.73242 39.4822C5.70403 39.5888 5.70381 39.6577 5.72656 39.7048C5.74836 39.7497 5.79775 39.7875 5.90137 39.8152L8.56348 40.4958C9.45131 40.7224 10.3394 40.949 11.2236 41.1755H11.2246C11.2593 41.1833 11.2903 41.1908 11.3203 41.196C11.3499 41.2012 11.3746 41.2036 11.3945 41.2009C11.4132 41.1984 11.4271 41.1915 11.4385 41.1804C11.4504 41.1687 11.4632 41.1479 11.4727 41.1101L12.0117 38.9822C12.0111 38.9541 12.0041 38.9361 11.9941 38.9236C11.983 38.9098 11.9656 38.8984 11.9404 38.8884C11.9148 38.8783 11.884 38.8705 11.8496 38.864C11.8172 38.8579 11.7778 38.852 11.7441 38.8445H11.7432C10.003 38.3912 8.26026 37.9522 6.53418 37.4988L6.5332 37.4978Z" fill="#1C468C" stroke="#1C468C" stroke-width="0.1"/>
<path d="M24.1426 2.01855C24.3913 1.90693 24.6878 1.92806 24.9502 2.10547L25.0479 2.18066C25.1383 2.26149 25.2074 2.35964 25.2529 2.47852C25.3131 2.63604 25.331 2.82718 25.3086 3.05859V3.06445L25.3066 3.06348C25.1679 3.74235 25.0784 4.46059 24.9629 5.19238C24.8476 5.92277 24.708 6.66503 24.4727 7.38574C23.6714 9.78961 22.013 11.248 19.6621 11.8818L19.1836 11.998C17.7869 12.3068 16.3777 12.4659 15.0664 13.0049C13.1174 13.8048 11.6634 15.1716 10.7324 17.0771C10.5793 17.3907 10.4366 17.7151 10.292 18.041C10.1478 18.3659 10.0002 18.6915 9.83887 19.0068L9.83984 19.0078C9.62284 19.4573 9.10932 19.6137 8.7041 19.4111H8.70312C8.49102 19.2975 8.33541 19.1435 8.25488 18.959C8.17409 18.7737 8.17141 18.5626 8.25586 18.3398V18.3389C9.20854 15.8767 10.5015 13.6705 12.8262 12.2139C14.3857 11.2283 16.1208 10.8616 17.875 10.4961L18.707 10.3271C18.9816 10.269 19.2537 10.2043 19.5225 10.1172L19.916 9.9707C20.8051 9.6076 21.4956 9.08661 22.0098 8.42383C22.5976 7.666 22.9572 6.72006 23.1172 5.60742V5.60645C23.2636 4.64017 23.4396 3.65944 23.6299 2.70801V2.70703C23.6986 2.37146 23.8943 2.1301 24.1426 2.01855Z" fill="#1C468C" stroke="#1C468C" stroke-width="0.1"/>
<path d="M32.8086 1.95068C33.0479 1.95068 33.2477 2.03237 33.4023 2.19287C33.5173 2.31221 33.606 2.47275 33.668 2.67139L33.7207 2.8833V2.88428C33.9259 4.05711 34.0866 5.22426 34.3496 6.37842L34.4531 6.771C34.7179 7.66304 35.1523 8.38805 35.7422 8.95264C36.4164 9.59781 37.2963 10.0371 38.3643 10.2769H38.3652C39.6315 10.5679 40.9417 10.7454 42.2021 11.1558C44.8479 12.0377 46.8042 13.7286 48.0684 16.2124C48.2116 16.4837 48.252 16.7452 48.1953 16.9702C48.1384 17.196 47.9847 17.3781 47.7539 17.4937L47.7549 17.4946C47.5241 17.6176 47.2887 17.634 47.0742 17.5474C46.8611 17.4612 46.6739 17.2756 46.5312 17.0054C45.2763 14.6183 43.3454 13.1651 40.7939 12.561L40.2754 12.4517C39.4563 12.2908 38.6352 12.1295 37.8145 11.9243C36.3365 11.5566 35.1643 10.8973 34.2881 9.95654C33.4121 9.01588 32.8341 7.79658 32.54 6.31201V6.31104C32.3351 5.27156 32.159 4.23191 31.998 3.19287L31.999 3.19189C31.9323 2.83331 31.9791 2.52393 32.123 2.30225C32.2684 2.07851 32.5079 1.9507 32.8086 1.95068Z" fill="#1C468C" stroke="#1C468C" stroke-width="0.1"/>
<path d="M8.85303 17.3081C9.0509 17.2121 9.28102 17.2012 9.51904 17.2856L9.52002 17.2866C9.71894 17.3603 9.96495 17.4814 10.1021 17.6616C10.1716 17.7531 10.2142 17.8613 10.2065 17.9858C10.199 18.1082 10.1431 18.2403 10.0288 18.3823L9.93115 18.5728C9.82504 18.7976 9.69458 19.1186 9.55225 19.4956C9.36301 19.9969 9.15367 20.5937 8.95166 21.186C8.54792 22.3698 8.17496 23.5336 8.05713 23.8872C7.06323 27.0004 6.37653 30.1738 5.90869 33.4048C5.86502 33.7103 5.80463 34.039 5.4917 34.2427C5.21451 34.4275 4.91769 34.4601 4.60791 34.3052V34.3042C4.43948 34.2271 4.31444 34.1146 4.23584 33.9712C4.15717 33.8275 4.12686 33.6567 4.14209 33.4663V33.4644C4.36175 31.7657 4.66967 30.0815 5.03564 28.4126V28.4116C5.56323 26.0378 7.49497 20.3298 8.29932 18.0337L8.30029 18.0317C8.31532 17.9942 8.33062 17.9601 8.34521 17.9272C8.35986 17.8943 8.37397 17.8622 8.38818 17.8267V17.8247C8.49435 17.5821 8.65576 17.4039 8.85303 17.3081Z" fill="#1C468C" stroke="#1C468C" stroke-width="0.1"/>
<path d="M31.0015 30.5291C31.2731 30.3933 31.5311 30.361 31.7544 30.4255C31.9503 30.4822 32.1141 30.6121 32.2339 30.8025L32.2827 30.8875L32.2837 30.8894C32.3906 31.1186 32.4076 31.3413 32.3267 31.5466C32.2462 31.7508 32.0711 31.9291 31.8091 32.0789L31.8101 32.0798C31.5228 32.245 31.3174 32.4368 31.1968 32.6482C31.0768 32.8587 31.0385 33.0917 31.0874 33.3435C31.1371 33.5989 31.2395 33.8062 31.3911 33.9666C31.5424 34.1265 31.7454 34.243 32.0005 34.3142H32.0015C32.2213 34.3692 32.4429 34.3147 32.6792 34.2556H32.6812C32.9604 34.1952 33.2144 34.2205 33.4136 34.324C33.6133 34.4278 33.7536 34.6084 33.8081 34.8484C33.8694 35.1013 33.836 35.3319 33.7144 35.5222C33.5933 35.7116 33.3886 35.8567 33.1177 35.947V35.946C31.2818 36.5729 29.3206 35.1241 29.3354 32.9431V32.9412C29.3951 31.9575 29.9325 31.0636 31.0015 30.5291Z" fill="#1C468C" stroke="#1C468C" stroke-width="0.1"/>
<path d="M34.4404 45.6418C34.6975 45.5209 34.9479 45.4924 35.165 45.5549C35.3825 45.6176 35.5605 45.7703 35.6758 46.0002C35.7913 46.2235 35.8092 46.4507 35.7285 46.6594C35.6482 46.867 35.4736 47.0507 35.2178 47.1936L35.2168 47.1926C34.8796 47.3938 34.6554 47.6289 34.5439 47.8831C34.4329 48.1363 34.4319 48.4151 34.5518 48.7112H34.5527C34.6731 49.0156 34.8582 49.2205 35.1055 49.3313C35.3541 49.4426 35.672 49.4621 36.0605 49.3831C36.34 49.3226 36.5975 49.3483 36.8018 49.4514C37.0065 49.5548 37.1546 49.7348 37.2168 49.9749L37.2373 50.0696C37.2747 50.2882 37.2318 50.4921 37.1172 50.6633C36.9866 50.8582 36.7668 51.0072 36.4805 51.0901V51.0891C34.6165 51.6556 32.7148 50.2378 32.7295 48.0276V48.0247C32.7892 47.0552 33.3271 46.1616 34.4404 45.6418Z" fill="#1C468C" stroke="#1C468C" stroke-width="0.1"/>
<path d="M25.9204 41.2793C26.0807 41.2539 26.2507 41.2777 26.4312 41.3379L26.6606 41.4297C27.7094 41.9081 28.4184 43.0657 28.3491 44.207L28.3228 44.4512C28.0702 45.9368 26.8797 46.9794 25.3911 46.9648V46.9658C25.0526 46.9658 24.7207 46.9368 24.4175 46.7852C24.2198 46.6863 24.0715 46.5472 23.9907 46.374C23.9099 46.2006 23.8999 45.9979 23.9683 45.7764H23.9673C24.0286 45.554 24.1448 45.3924 24.3042 45.2881C24.4627 45.1844 24.6599 45.1397 24.8784 45.1396C24.9512 45.1396 25.0191 45.1554 25.0815 45.1719C25.1457 45.1888 25.204 45.2061 25.2651 45.2129H25.2642C25.5842 45.2412 25.8613 45.1802 26.0806 45.041C26.2997 44.9019 26.4651 44.682 26.5571 44.3848L26.5845 44.2793C26.636 44.0353 26.61 43.8008 26.5142 43.5938C26.4045 43.357 26.2014 43.1527 25.9106 43.0107H25.9097C25.6475 42.8797 25.3811 42.7403 25.2563 42.4131V42.4121C25.1318 42.0696 25.2262 41.7567 25.4722 41.5107L25.4731 41.5098C25.6112 41.3794 25.7594 41.3049 25.9204 41.2793Z" fill="#1C468C" stroke="#1C468C" stroke-width="0.1"/>
</svg>
