<svg width="60" height="60" viewBox="0 0 60 60" fill="none" xmlns="http://www.w3.org/2000/svg">
<path d="M29.6869 57.9985C20.7121 57.9985 11.7221 57.9985 2.74733 57.9985C2.56386 57.9985 2.3651 58.0138 2.18163 57.9832C1.75353 57.9068 1.49361 57.6469 1.47832 57.2188C1.47832 56.7601 1.73824 56.4849 2.19692 56.4084C2.34981 56.3779 2.5027 56.3931 2.65559 56.3931C5.22418 56.3931 7.80805 56.3779 10.3766 56.4084C10.7894 56.4084 10.9576 56.3473 10.9576 55.8733C10.927 53.2741 10.9423 50.6903 10.9576 48.0911C10.9576 47.6936 10.8506 47.5866 10.4531 47.5866C7.77747 47.6019 5.11715 47.6019 2.44154 47.6019C1.81469 47.6019 1.43246 47.2502 1.47832 46.7457C1.5089 46.287 1.87584 45.9965 2.45683 45.9965C4.44443 45.9965 6.41673 45.9965 8.40433 45.9965C9.09234 45.9965 9.78035 45.9659 10.4684 46.0118C10.8812 46.0271 10.9729 45.8895 10.9576 45.5072C10.9423 39.9726 10.9423 34.4532 10.9423 28.9185C10.9423 27.2214 10.9423 25.5243 10.9423 23.8272C10.9423 23.0168 11.2022 22.7722 11.9973 22.7722C24.0146 22.7722 36.0166 22.7722 48.0339 22.7722C48.8901 22.7722 49.1194 23.0168 49.1194 23.9189C49.1194 31.0742 49.1194 38.2143 49.1042 45.3696C49.1042 45.9048 49.2418 46.0118 49.7616 46.0118C52.1467 45.9812 54.5318 45.9965 56.9169 45.9965C57.1616 45.9965 57.4215 45.9812 57.6355 46.1341C57.926 46.3481 58.0636 46.6234 57.9719 46.975C57.8801 47.3419 57.6355 47.5713 57.238 47.5866C56.7182 47.6019 56.2136 47.5866 55.6938 47.5866C53.6756 47.5866 51.6574 47.6019 49.624 47.5713C49.2418 47.5713 49.1042 47.6477 49.1042 48.0605C49.1194 50.6903 49.1194 53.32 49.1042 55.9498C49.1042 56.3014 49.1959 56.3931 49.5475 56.3931C52.0091 56.3779 54.4707 56.3931 56.9322 56.3779C57.2686 56.3779 57.5744 56.4084 57.8037 56.6836C58.1859 57.1576 57.926 57.8456 57.3144 57.9679C57.131 57.9985 56.9322 57.9832 56.7487 57.9832C47.7281 57.9985 38.7075 57.9985 29.6869 57.9985ZM22.7303 50.3233C22.8067 50.2622 22.822 50.2469 22.822 50.2316C23.2196 49.1461 23.6171 48.0605 23.9993 46.9597C24.3204 46.0577 24.4274 45.9812 25.3448 45.9812C26.4456 45.9812 27.5617 45.9659 28.6625 45.9965C29.1059 46.0118 29.2282 45.9048 29.2282 45.4461C29.2129 38.5965 29.2129 31.7623 29.2282 24.9127C29.2282 24.4693 29.1212 24.347 28.6625 24.347C23.4642 24.3623 18.2506 24.3623 13.0522 24.347C12.563 24.347 12.5171 24.5152 12.5171 24.928C12.5324 31.5482 12.5171 38.1531 12.5171 44.7734C12.5171 45.9965 12.5171 45.9659 13.7555 46.0118C14.2601 46.0271 14.52 45.8742 14.7646 45.4308C16.0336 43.1374 17.3485 40.8593 18.6328 38.5812C18.8468 38.2143 19.1068 37.985 19.5501 38.0614C19.963 38.1379 20.1617 38.4131 20.2076 38.8106C20.2229 38.8717 20.2382 38.9176 20.2534 38.9788C20.8344 41.7308 21.4307 44.4829 22.0117 47.2349C22.2869 48.244 22.501 49.2684 22.7303 50.3233ZM42.9273 50.2622C43.1261 50.201 43.1108 50.0481 43.1414 49.9258C43.5236 48.8556 43.9211 47.7853 44.3033 46.7151C44.4715 46.2105 44.7926 45.9812 45.3277 45.9965C45.817 46.0118 46.3215 45.9659 46.8108 46.0118C47.3612 46.0577 47.5447 45.9353 47.5294 45.3238C47.4835 42.6787 47.5141 40.0184 47.5141 37.3734C47.5141 33.2147 47.5141 29.0561 47.5141 24.9127C47.5141 24.5305 47.4835 24.3623 47.0095 24.3623C41.7653 24.3776 36.5212 24.3776 31.2922 24.3776C30.9865 24.3776 30.8183 24.3929 30.8336 24.7904C30.8489 31.7317 30.8489 38.673 30.8336 45.599C30.8336 45.9201 30.91 46.0271 31.2464 46.0118C32.2249 45.9965 33.1881 45.9812 34.1666 46.0118C34.5641 46.0271 34.7629 45.8895 34.9617 45.5531C36.2612 43.2292 37.5914 40.9205 38.891 38.5965C39.0897 38.2296 39.3649 38.0003 39.8083 38.0614C40.2517 38.1379 40.4199 38.4436 40.5116 38.8564C40.6187 39.3916 40.741 39.942 40.848 40.4771C41.5207 43.7337 42.224 46.9903 42.9273 50.2622ZM19.1373 41.1804C18.908 41.318 18.8621 41.5015 18.7704 41.6697C17.7766 43.4126 16.7675 45.1709 15.789 46.9291C15.5291 47.4031 15.208 47.6324 14.6576 47.6019C14.0919 47.5713 13.5109 47.6019 12.9452 47.5866C12.67 47.5713 12.5477 47.6324 12.5477 47.9535C12.563 50.6444 12.563 53.32 12.5477 56.0109C12.5477 56.3014 12.6089 56.4084 12.9146 56.3931C13.6027 56.3626 14.2907 56.3931 14.9787 56.3931C19.5501 56.3931 24.1216 56.3931 28.6931 56.3931C28.9683 56.3931 29.2435 56.5002 29.2435 56.0109C29.2282 53.3506 29.2282 50.675 29.2435 48.0147C29.2435 47.6936 29.1518 47.5866 28.8307 47.6019C27.9133 47.6172 26.996 47.6324 26.0939 47.6019C25.6352 47.5866 25.4365 47.7242 25.2836 48.1523C24.672 49.9258 24.0299 51.6994 23.403 53.4729C23.2501 53.9163 23.0055 54.2221 22.501 54.1762C22.027 54.1303 21.8435 53.794 21.7518 53.3659C21.1708 50.6444 20.6051 47.9382 20.0241 45.2167C19.7183 43.8713 19.4278 42.5411 19.1373 41.1804ZM39.3191 41.0581C38.1571 43.1221 37.0563 45.0333 35.986 46.9597C35.7414 47.4031 35.4203 47.6172 34.8852 47.6019C33.6774 47.5713 32.4848 47.6019 31.277 47.5866C30.9253 47.5866 30.8336 47.663 30.8336 48.03C30.8489 50.675 30.8489 53.3353 30.8336 55.9803C30.8336 56.3473 30.9406 56.4084 31.277 56.4084C36.5364 56.3931 41.7959 56.3931 47.0554 56.4084C47.4376 56.4084 47.5141 56.3014 47.5141 55.9345C47.4988 53.5952 47.4988 51.2407 47.4988 48.9014C47.4988 47.6019 47.4988 47.6172 46.2145 47.5866C45.817 47.5866 45.6182 47.6783 45.4806 48.0758C44.869 49.8799 44.1963 51.6535 43.5695 53.4423C43.4166 53.8857 43.1719 54.1915 42.6674 54.1456C42.1934 54.0998 42.01 53.7787 41.9182 53.3353C41.4443 51.0419 40.9397 48.7638 40.4505 46.4705C40.0988 44.7122 39.7166 42.9539 39.3191 41.0581Z" fill="#1C468C"/>
<path d="M29.702 18.8734C28.4636 18.8734 27.2251 18.8734 25.9867 18.8734C25.1764 18.8734 24.9165 18.6135 24.9165 17.8337C24.9165 16.1519 24.9012 14.4854 24.9165 12.8036C24.9318 10.0668 27.0722 7.89577 29.7478 7.92634C32.4235 7.95692 34.5181 10.0821 34.5334 12.7883C34.5487 14.4854 34.5334 16.1825 34.5334 17.8796C34.5334 18.5982 34.2582 18.8734 33.5243 18.8734C32.2553 18.8887 30.9863 18.8734 29.702 18.8734ZM26.5218 13.4457C26.5218 13.828 26.5371 14.1643 26.5218 14.4854C26.5065 14.7912 26.5677 14.9288 26.9193 14.9135C27.4698 14.8829 28.0202 14.8829 28.5706 14.9135C28.8917 14.9288 28.9528 14.8065 28.9375 14.516C28.9222 13.9503 28.9222 13.3693 28.9375 12.8036C28.9528 12.2379 29.2586 11.8862 29.7478 11.9015C30.2218 11.9015 30.5276 12.2532 30.5429 12.8189C30.5582 13.4152 30.5582 13.9962 30.5429 14.5924C30.5429 14.8371 30.604 14.9288 30.864 14.9135C31.4602 14.8982 32.0412 14.8982 32.6375 14.9135C32.8821 14.9135 32.9739 14.8371 32.9586 14.5924C32.9433 13.9503 32.9586 13.2928 32.9433 12.6507C32.8974 11.0606 31.7049 9.76105 30.0995 9.57758C28.5247 9.39411 27.057 10.3879 26.6289 11.9321C26.4913 12.4519 26.5371 12.9871 26.5218 13.4457ZM29.7173 17.2833C30.6652 17.2833 31.6284 17.268 32.5763 17.2833C32.8821 17.2833 32.9586 17.1916 32.9586 16.9011C32.9586 16.6259 32.9127 16.5036 32.5916 16.5036C30.7111 16.5189 28.8152 16.5189 26.9346 16.5036C26.5983 16.5036 26.5371 16.6259 26.5218 16.9317C26.5065 17.268 26.6594 17.2833 26.9193 17.2833C27.852 17.268 28.7846 17.2833 29.7173 17.2833Z" fill="#1C468C"/>
<path d="M24.8092 7.58995C24.7939 7.95689 24.6716 8.20152 24.3964 8.35441C24.1059 8.52259 23.7848 8.53788 23.5402 8.32383C22.7452 7.55938 21.9501 6.79492 21.201 5.98459C20.9105 5.66352 20.9869 5.266 21.308 4.96021C21.5985 4.68501 21.996 4.62385 22.2865 4.89906C23.0968 5.64823 23.8613 6.44326 24.6257 7.22301C24.748 7.33004 24.7633 7.49822 24.8092 7.58995Z" fill="#1C468C"/>
<path d="M35.5128 8.46166C35.1458 8.46166 34.9165 8.30876 34.7636 8.04885C34.5954 7.75835 34.6107 7.43728 34.8248 7.19265C35.5739 6.41291 36.3384 5.63316 37.1334 4.89928C37.4392 4.60878 37.852 4.66994 38.1578 4.97572C38.4636 5.28151 38.5247 5.67902 38.219 6.0001C37.4851 6.79513 36.7053 7.54431 35.9256 8.29348C35.8186 8.43108 35.6351 8.49224 35.5128 8.46166Z" fill="#1C468C"/>
<path d="M28.9223 3.81337C28.9223 3.32411 28.907 2.81957 28.9223 2.33032C28.9376 1.81048 29.274 1.47412 29.7174 1.47412C30.1607 1.47412 30.4971 1.81048 30.5124 2.33032C30.5277 3.29353 30.5277 4.27204 30.5124 5.23526C30.4971 5.77038 30.1913 6.07617 29.7174 6.07617C29.2434 6.07617 28.9376 5.75509 28.9223 5.23526C28.9223 4.7613 28.9223 4.28733 28.9223 3.81337Z" fill="#1C468C"/>
<path d="M20.0545 14.1946C19.5806 14.1946 19.1066 14.2099 18.6327 14.1946C18.1434 14.1794 17.8376 13.9347 17.8223 13.4302C17.807 12.9256 18.1128 12.6351 18.5868 12.6199C19.6112 12.5893 20.6355 12.5893 21.6599 12.6199C22.1339 12.6351 22.4397 12.9409 22.4091 13.4455C22.3785 13.95 22.0727 14.1946 21.5835 14.1946C21.0789 14.2099 20.5591 14.1946 20.0545 14.1946Z" fill="#1C468C"/>
<path d="M39.3496 14.1951C38.8756 14.1951 38.4016 14.2104 37.9277 14.1951C37.3773 14.1798 37.0715 13.9046 37.0562 13.4307C37.0409 12.972 37.362 12.6051 37.8818 12.6051C38.8756 12.5745 39.8541 12.5898 40.8479 12.6051C41.3677 12.6203 41.6888 12.972 41.6735 13.4307C41.6582 13.9046 41.3524 14.1798 40.802 14.1951C40.2975 14.2104 39.8235 14.1951 39.3496 14.1951Z" fill="#1C468C"/>
<path d="M20.9262 26.7473C22.6233 26.7473 24.3204 26.7473 26.0175 26.7473C26.8125 26.7473 27.0724 27.0072 27.0724 27.8023C27.0724 30.0345 27.0724 32.2667 27.0724 34.4836C27.0724 35.3093 26.7972 35.5692 25.9563 35.5692C22.5621 35.5692 19.1679 35.5692 15.789 35.5692C14.9787 35.5692 14.7188 35.3245 14.7188 34.5295C14.7188 32.282 14.7188 30.0345 14.7188 27.787C14.7188 26.9767 14.9481 26.7473 15.789 26.7473C17.5014 26.7473 19.2138 26.7473 20.9262 26.7473ZM20.865 33.9791C22.2563 33.9791 23.6476 33.9638 25.039 33.9944C25.3906 33.9944 25.4823 33.8874 25.4823 33.551C25.4671 31.9762 25.4671 30.3861 25.4823 28.8114C25.4823 28.4597 25.3906 28.368 25.039 28.368C22.2716 28.3833 19.5043 28.3833 16.7522 28.368C16.3853 28.368 16.3241 28.4903 16.3241 28.8266C16.3394 30.4014 16.3394 31.9915 16.3241 33.5663C16.3241 33.9179 16.4006 34.0097 16.7675 34.0097C18.113 33.9638 19.489 33.9791 20.865 33.9791Z" fill="#1C468C"/>
<path d="M39.1506 35.5692C37.4535 35.5692 35.7564 35.5692 34.0593 35.5692C33.2643 35.5692 33.0044 35.3093 33.0044 34.5142C33.0044 32.2667 33.0044 30.0192 33.0044 27.7717C33.0044 26.9919 33.249 26.7473 34.0288 26.7473C37.4535 26.7473 40.8936 26.7473 44.3184 26.7473C45.0981 26.7473 45.3581 26.9919 45.3581 27.7717C45.3581 30.0192 45.3581 32.2667 45.3581 34.5142C45.3581 35.3093 45.0829 35.5692 44.2878 35.5845C42.5754 35.5845 40.863 35.5692 39.1506 35.5692ZM39.1659 33.9791C40.542 33.9791 41.918 33.9638 43.2787 33.9944C43.6457 33.9944 43.768 33.9179 43.7527 33.5357C43.7221 31.9762 43.7221 30.4014 43.7527 28.8419C43.7527 28.4138 43.6151 28.3527 43.2329 28.3527C40.5114 28.368 37.7746 28.368 35.0531 28.3527C34.6862 28.3527 34.5792 28.4444 34.5792 28.8266C34.5945 30.3861 34.6098 31.9609 34.5792 33.5204C34.5639 33.9485 34.7168 34.0097 35.099 34.0097C36.4598 33.9638 37.8205 33.9791 39.1659 33.9791Z" fill="#1C468C"/>
</svg>
